<svg id="Layer_1" height="512" viewBox="0 0 512 512" width="512" xmlns="http://www.w3.org/2000/svg" data-name="Layer 1"><path d="m433.08 254.74h-354.28v140.18a32.922 32.922 0 0 0 32.92 32.92h288.56a32.922 32.922 0 0 0 32.92-32.92v-140.18z" fill="#fcca3d"/><path d="m255.64 105.87v148.87h-.51-176.33v-150.28h.27 176.57z" fill="#b3d1e7"/><path d="m433.2 104.46v150.28h-.12-177.44v-148.87-1.41h177.29z" fill="#a2c6dd"/><path d="m489.61 122.8h-29a4.389 4.389 0 0 0 -4.39 4.39v50.76a4.389 4.389 0 0 0 4.39 4.39h29a4.383 4.383 0 0 0 4.39-4.39v-50.76a4.383 4.383 0 0 0 -4.39-4.39z" fill="#6d7486"/><path d="m400.28 45.76h-288.56a32.913 32.913 0 0 0 -32.92 32.91v25.79h354.4v-25.79a32.913 32.913 0 0 0 -32.92-32.91z" fill="#fcca3d"/><path d="m51.39 122.8h-29a4.383 4.383 0 0 0 -4.39 4.39v50.76a4.383 4.383 0 0 0 4.39 4.39h29a4.389 4.389 0 0 0 4.39-4.39v-50.76a4.389 4.389 0 0 0 -4.39-4.39z" fill="#6d7486"/><path d="m158.9 28.2h194.2v43.89h-194.2z" fill="#6d7486"/><path d="m172.46 347.57h167.08v20.75h-167.08z" fill="#ff5576"/><path d="m172.46 327.07h167.08v20.5h-167.08z" fill="#70c2ff"/><path d="m172.46 306.32h167.08v20.75h-167.08z" fill="#ff5576"/><path d="m394.25 427.84v46.08a9.876 9.876 0 0 1 -9.88 9.88h-33.42a9.873 9.873 0 0 1 -9.87-9.88v-46.08z" fill="#6d7486"/><path d="m168.18 427.84v46.08a9.876 9.876 0 0 1 -9.88 9.88h-33.42a9.873 9.873 0 0 1 -9.87-9.88v-46.08z" fill="#6d7486"/><path d="m79.07 104.46h-.27v150.28h30v-150.28z" fill="#9fbbcc"/><path d="m108.8 394.92v-140.18h-30v140.18a32.922 32.922 0 0 0 32.92 32.92h30a32.922 32.922 0 0 1 -32.92-32.92z" fill="#d8aa39"/><path d="m141.72 45.76h-30a32.913 32.913 0 0 0 -32.92 32.91v25.79h30v-25.79a32.913 32.913 0 0 1 32.92-32.91z" fill="#d8aa39"/><path d="m384.11 322.03a20.775 20.775 0 1 1 -20.77 20.78 20.775 20.775 0 0 1 20.77-20.78z" fill="#ed8115"/><path d="m127.89 322.03a20.775 20.775 0 1 1 -20.78 20.78 20.773 20.773 0 0 1 20.78-20.78z" fill="#ed8115"/><g fill="#284268"><path d="m127.887 316.028a26.778 26.778 0 1 0 26.778 26.777 26.808 26.808 0 0 0 -26.778-26.777zm0 41.555a14.778 14.778 0 1 1 14.778-14.778 14.8 14.8 0 0 1 -14.778 14.778z"/><path d="m384.113 369.583a26.778 26.778 0 1 0 -26.778-26.778 26.809 26.809 0 0 0 26.778 26.778zm0-41.555a14.778 14.778 0 1 1 -14.778 14.777 14.795 14.795 0 0 1 14.778-14.777z"/><path d="m489.611 117h-7.611v-6.509c0-10.264-10.666-18.491-24.756-18.491h-18.244v-13.326a38.583 38.583 0 0 0 -38.716-38.674h-41.284v-12a6 6 0 0 0 -6-6h-194a6 6 0 0 0 -6 6v12h-41.284a38.583 38.583 0 0 0 -38.716 38.674v13.326h-18.244c-14.09 0-24.756 8.227-24.756 18.491v6.509h-7.611a10.229 10.229 0 0 0 -10.389 10.186v50.768a10.112 10.112 0 0 0 10.389 10.046h29c5.728 0 10.611-4.317 10.611-10.046v-50.768a10.422 10.422 0 0 0 -10.612-10.186h-9.388v-6.509c0-2.51 4.864-6.491 12.756-6.491h18.244v290.923a38.958 38.958 0 0 0 36 38.971v40.029a16.074 16.074 0 0 0 15.882 16.077h33.418a15.916 15.916 0 0 0 15.7-16.077v-39.923h161v39.923a16.134 16.134 0 0 0 15.953 16.077h33.422a15.856 15.856 0 0 0 15.625-16.077v-39.923h.284a38.927 38.927 0 0 0 38.716-39.077v-290.923h18.244c7.892 0 12.756 3.981 12.756 6.491v6.509h-9.389a10.421 10.421 0 0 0 -10.611 10.186v50.768c0 5.729 4.882 10.046 10.611 10.046h29a10.112 10.112 0 0 0 10.389-10.046v-50.768a10.229 10.229 0 0 0 -10.389-10.186zm-439.611 12v47h-26v-47zm115-95h182v32h-182zm-3 439.923a3.91 3.91 0 0 1 -3.7 4.077h-33.418a4.063 4.063 0 0 1 -3.882-4.077v-39.923h41zm226 0a3.853 3.853 0 0 1 -3.625 4.077h-33.422a4.124 4.124 0 0 1 -3.953-4.077v-39.923h41zm39-79a26.914 26.914 0 0 1 -26.716 27.077h-288.568a26.914 26.914 0 0 1 -26.716-27.077v-133.923h24a6 6 0 0 0 0-12h-24v-139h165v139h-101a6 6 0 0 0 0 12h278zm0-145.923h-165v-139h165zm0-151h-342v-19.326a26.57 26.57 0 0 1 26.716-26.674h41.284v20a6 6 0 0 0 6 6h194a6 6 0 0 0 6-6v-20h41.284a26.57 26.57 0 0 1 26.716 26.674zm61 78h-26v-47h26z"/><path d="m166 306v62a6 6 0 0 0 6 6h167a6 6 0 0 0 6-6v-62a6 6 0 0 0 -6-6h-167a6 6 0 0 0 -6 6zm12 6h156v9h-156zm0 21h156v9h-156zm0 21h156v8h-156z"/><path d="m105.243 148.976 13.089-13.089a6 6 0 1 0 -8.486-8.485l-13.089 13.089a6 6 0 0 0 8.486 8.485z"/><path d="m145.243 124.757a6 6 0 0 0 -8.486 0l-38 38a6 6 0 0 0 8.486 8.486l38-38a6 6 0 0 0 0-8.486z"/><path d="m408 222.362a6 6 0 0 0 6-6v-60.614a6 6 0 0 0 -12 0v60.614a6 6 0 0 0 6 6z"/><path d="m408 139.362a6 6 0 0 0 6-6v-5.614a6 6 0 0 0 -12 0v5.614a6 6 0 0 0 6 6z"/></g></svg>