<?xml version="1.0" encoding="iso-8859-1"?>
<!-- Generator: Adobe Illustrator 19.0.0, SVG Export Plug-In . SVG Version: 6.00 Build 0)  -->
<svg version="1.1" id="Layer_1" xmlns="http://www.w3.org/2000/svg" xmlns:xlink="http://www.w3.org/1999/xlink" x="0px" y="0px"
	 viewBox="0 0 511.987 511.987" style="enable-background:new 0 0 511.987 511.987;" xml:space="preserve">
<g>
	<path style="fill:#434A54;" d="M138.669,437.331c-5.89,0-10.671-4.781-10.671-10.687v-53.311c0-5.906,4.781-10.688,10.671-10.688
		c5.891,0,10.656,4.781,10.656,10.688v53.312C149.326,432.55,144.56,437.331,138.669,437.331z"/>
	<path style="fill:#434A54;" d="M373.318,437.331c-5.891,0-10.656-4.781-10.656-10.687v-53.311c0-5.906,4.766-10.688,10.656-10.688
		s10.672,4.781,10.672,10.688v53.312C383.99,432.55,379.209,437.331,373.318,437.331z"/>
</g>
<path style="fill:#E6E9ED;" d="M458.66,149.332H53.328c-5.89,0-10.656,4.773-10.656,10.664v213.337
	c0,5.875,4.766,10.656,10.656,10.656H458.66c5.891,0,10.656-4.781,10.656-10.656V159.996
	C469.316,154.105,464.551,149.332,458.66,149.332z"/>
<g>
	<path style="fill:#656D78;" d="M53.328,447.987c-5.89,0-10.656-4.781-10.656-10.656V117.333c0-5.891,4.766-10.672,10.656-10.672
		c5.891,0,10.672,4.781,10.672,10.672v319.998C64,443.206,59.219,447.987,53.328,447.987z"/>
	<path style="fill:#656D78;" d="M458.66,447.987c-5.891,0-10.672-4.781-10.672-10.656V117.333c0-5.891,4.781-10.672,10.672-10.672
		s10.656,4.781,10.656,10.672v319.998C469.316,443.206,464.551,447.987,458.66,447.987z"/>
</g>
<path style="fill:#ED5564;" d="M508.861,109.786l-42.67-42.662c-2-2-4.703-3.125-7.531-3.125H53.328
	c-2.828,0-5.531,1.125-7.531,3.125L3.126,109.786c-3.047,3.055-3.968,7.641-2.312,11.625s5.547,6.586,9.859,6.586h490.641
	c4.312,0,8.203-2.602,9.859-6.586C512.829,117.427,511.908,112.841,508.861,109.786z"/>
<g>
	<path style="fill:#434A54;" d="M64,447.987H42.672c-5.891,0-10.671-4.781-10.671-10.656c0-5.906,4.781-10.687,10.671-10.687H64
		c5.89,0,10.671,4.78,10.671,10.687C74.671,443.206,69.89,447.987,64,447.987z"/>
	<path style="fill:#434A54;" d="M469.316,447.987h-21.328c-5.891,0-10.672-4.781-10.672-10.656c0-5.906,4.781-10.687,10.672-10.687
		h21.328c5.89,0,10.671,4.78,10.671,10.687C479.987,443.206,475.206,447.987,469.316,447.987z"/>
</g>
<path style="fill:#965353;" d="M394.662,330.647H117.327c-5.891,0-10.656,4.781-10.656,10.687v31.999
	c0,5.875,4.766,10.656,10.656,10.656h277.335c5.891,0,10.655-4.781,10.655-10.656v-31.999
	C405.317,335.429,400.553,330.647,394.662,330.647z"/>
<path style="fill:#FFCE54;" d="M373.318,191.995H138.669c-5.89,0-10.671,4.773-10.671,10.664v85.333
	c0,5.891,4.781,10.655,10.671,10.655h234.649c5.891,0,10.672-4.765,10.672-10.655v-85.333
	C383.99,196.768,379.209,191.995,373.318,191.995z"/>
<rect x="245.324" y="191.993" style="fill:#F6BB42;" width="21.343" height="106.65"/>
<g>
</g>
<g>
</g>
<g>
</g>
<g>
</g>
<g>
</g>
<g>
</g>
<g>
</g>
<g>
</g>
<g>
</g>
<g>
</g>
<g>
</g>
<g>
</g>
<g>
</g>
<g>
</g>
<g>
</g>
</svg>
