<?xml version="1.0" encoding="iso-8859-1"?>
<!-- Generator: Adobe Illustrator 19.0.0, SVG Export Plug-In . SVG Version: 6.00 Build 0)  -->
<svg version="1.1" id="Layer_1" xmlns="http://www.w3.org/2000/svg" xmlns:xlink="http://www.w3.org/1999/xlink" x="0px" y="0px"
	 viewBox="0 0 512.853 512.853" style="enable-background:new 0 0 512.853 512.853;" xml:space="preserve">
<g transform="translate(1 1)">
	<path style="fill:#FFE100;" d="M472.6,151.32L406.04,69.4c-3.413-4.267-8.533-6.827-13.653-6.827H48.493
		c-8.533,0.853-15.36,8.533-15.36,17.92v256c0,9.387,6.827,17.067,15.36,17.067H60.44c0-28.16,20.48-51.2,46.08-51.2
		s46.08,23.04,46.08,51.2h204.8c0-28.16,20.48-51.2,46.08-51.2s46.08,23.04,46.08,51.2h11.947c8.533,0,15.36-7.68,15.36-17.067
		V165.827C476.867,159.853,475.16,155.587,472.6,151.32"/>
	<path style="fill:#63D3FD;" d="M7.533,97.56v102.4h66.56c5.973,0,10.24-4.267,10.24-10.24V107.8c0-5.973-4.267-10.24-10.24-10.24
		H7.533z"/>
	<path style="fill:#FECC00;" d="M127,353.56c0,28.16-17.067,51.2-38.4,51.2s-38.4-23.04-38.4-51.2s17.067-51.2,38.4-51.2
		S127,325.4,127,353.56"/>
	<path style="fill:#FFA800;" d="M101.4,302.36c-2.56,0-5.12,0-7.68,0.853C112.493,306.627,127,327.96,127,353.56
		s-14.507,46.933-33.28,50.347c2.56,0,5.12,0.853,7.68,0.853c28.16,0,51.2-23.04,51.2-51.2S129.56,302.36,101.4,302.36"/>
	<path style="fill:#FFFFFF;" d="M33.133,336.493v-256c0-9.387,6.827-17.067,15.36-17.067H24.6c-9.387,0-17.067,7.68-17.067,17.067
		v256c0,9.387,7.68,17.067,17.067,17.067h23.893C39.96,353.56,33.133,345.88,33.133,336.493"/>
	<path style="fill:#FFA800;" d="M497.347,151.32l-74.24-81.92c-3.413-3.413-9.387-5.973-14.507-5.973h-16.213
		c5.12,0,10.24,2.56,13.653,6.827l66.56,81.92c3.413,3.413,4.267,8.533,4.267,13.653v170.667c0,9.387-6.827,17.067-15.36,17.067
		H485.4c9.387,0,17.067-7.68,17.067-17.067V165.827C502.467,159.853,500.76,155.587,497.347,151.32"/>
	<path style="fill:#63D3FD;" d="M388.973,199.96h87.893v-34.987c0-5.12-1.707-9.387-5.12-13.653l-49.493-53.76h-33.28
		c-3.413,0-5.973,2.56-5.973,5.973v90.453C383,197.4,385.56,199.96,388.973,199.96"/>
	<path style="fill:#3DB9F9;" d="M497.347,151.32l-49.493-53.76h-25.6l49.493,53.76c3.413,3.413,5.12,8.533,5.12,13.653v34.987h25.6
		v-34.987C502.467,159.853,500.76,155.587,497.347,151.32"/>
	<g>
		<path style="fill:#63D3FD;" d="M255,109.507v78.507c0,6.827,5.12,11.947,11.947,11.947h61.44c6.827,0,11.947-5.12,11.947-11.947
			v-78.507c0-6.827-5.12-11.947-11.947-11.947h-61.44C260.12,97.56,255,102.68,255,109.507"/>
		<path style="fill:#63D3FD;" d="M127,109.507v78.507c0,6.827,5.12,11.947,11.947,11.947h61.44c6.827,0,11.947-5.12,11.947-11.947
			v-78.507c0-6.827-5.12-11.947-11.947-11.947h-61.44C132.12,97.56,127,102.68,127,109.507"/>
	</g>
	<path style="fill:#00DA6C;" d="M476.867,345.027c0,56.32-40.107,102.4-89.6,102.4s-89.6-46.08-89.6-102.4s40.107-102.4,89.6-102.4
		S476.867,288.707,476.867,345.027"/>
	<path style="fill:#00AD55;" d="M400.067,242.627c-2.56,0-4.267,0-6.827,0c46.933,3.413,83.627,47.787,83.627,102.4
		s-36.693,98.133-83.627,102.4c2.56,0,4.267,0,6.827,0c56.32,0,102.4-46.08,102.4-102.4S456.387,242.627,400.067,242.627"/>
	<path d="M400.067,455.96c-61.44,0-110.933-49.493-110.933-110.933s49.493-110.933,110.933-110.933S511,283.587,511,345.027
		S461.507,455.96,400.067,455.96z M400.067,251.16c-52.053,0-93.867,41.813-93.867,93.867s41.813,93.867,93.867,93.867
		s93.867-41.813,93.867-93.867S452.12,251.16,400.067,251.16z"/>
	<path d="M398.36,386.84c-1.707,0-4.267-0.853-5.12-1.707l-40.96-33.28c-3.413-2.56-4.267-8.533-0.853-11.947
		c2.56-3.413,8.533-4.267,11.947-0.853l33.28,27.307l47.787-68.267c2.56-4.267,7.68-5.12,11.947-1.707
		c4.267,2.56,5.12,7.68,1.707,11.947l-52.907,75.947c-1.707,1.707-3.413,3.413-5.973,3.413
		C399.213,386.84,398.36,386.84,398.36,386.84z"/>
	<path d="M272.067,276.76H7.533c-5.12,0-8.533-3.413-8.533-8.533s3.413-8.533,8.533-8.533h264.533c5.12,0,8.533,3.413,8.533,8.533
		S277.187,276.76,272.067,276.76z"/>
	<path d="M237.933,242.627H7.533c-5.12,0-8.533-3.413-8.533-8.533c0-5.12,3.413-8.533,8.533-8.533h230.4
		c5.12,0,8.533,3.413,8.533,8.533C246.467,239.213,243.053,242.627,237.933,242.627z"/>
	<path d="M511,208.493H388.973c-7.68,0-14.507-6.827-14.507-14.507v-90.453c0-7.68,6.827-14.507,14.507-14.507h63.147l51.2,57.173
		c5.12,5.12,7.68,11.947,7.68,19.627L511,208.493L511,208.493z M391.533,191.427h102.4v-26.453c0-2.56-0.853-5.973-3.413-7.68
		l-46.933-51.2h-52.053V191.427z"/>
	<path d="M74.093,208.493H-1V89.027h75.093c10.24,0,18.773,8.533,18.773,18.773v81.92C92.867,199.96,84.333,208.493,74.093,208.493z
		 M16.067,191.427h58.027c0.853,0,1.707-0.853,1.707-1.707V107.8c0-0.853-0.853-1.707-1.707-1.707H16.067V191.427z"/>
	<path d="M328.387,208.493h-61.44c-11.093,0-20.48-9.387-20.48-20.48v-78.507c0-11.093,9.387-20.48,20.48-20.48h61.44
		c11.093,0,20.48,9.387,20.48,20.48v78.507C348.867,199.107,339.48,208.493,328.387,208.493z M266.947,106.093
		c-1.707,0-3.413,1.707-3.413,3.413v78.507c0,1.707,1.707,3.413,3.413,3.413h61.44c1.707,0,3.413-1.707,3.413-3.413v-78.507
		c0-1.707-1.707-3.413-3.413-3.413H266.947z"/>
	<path d="M200.387,208.493h-61.44c-11.093,0-20.48-9.387-20.48-20.48v-78.507c0-11.093,9.387-20.48,20.48-20.48h61.44
		c11.093,0,20.48,9.387,20.48,20.48v78.507C220.867,199.107,211.48,208.493,200.387,208.493z M138.947,106.093
		c-1.707,0-3.413,1.707-3.413,3.413v78.507c0,1.707,1.707,3.413,3.413,3.413h61.44c1.707,0,3.413-1.707,3.413-3.413v-78.507
		c0-1.707-1.707-3.413-3.413-3.413H138.947z"/>
	<path d="M101.4,413.293c-33.28,0-59.733-26.453-59.733-59.733s26.453-59.733,59.733-59.733s59.733,26.453,59.733,59.733
		S134.68,413.293,101.4,413.293z M101.4,310.893c-23.893,0-42.667,18.773-42.667,42.667s18.773,42.667,42.667,42.667
		s42.667-18.773,42.667-42.667S125.293,310.893,101.4,310.893z"/>
	<path d="M118.467,353.56c0,9.387-7.68,17.067-17.067,17.067s-17.067-7.68-17.067-17.067s7.68-17.067,17.067-17.067
		S118.467,344.173,118.467,353.56"/>
	<path d="M298.52,362.093H152.6c-5.12,0-8.533-3.413-8.533-8.533c0-23.893-18.773-42.667-42.667-42.667
		s-42.667,18.773-42.667,42.667c0,5.12-3.413,8.533-8.533,8.533H24.6c-14.507,0-25.6-11.947-25.6-25.6v-256
		c0-14.507,11.947-25.6,25.6-25.6h384c7.68,0,15.36,3.413,21.333,9.387l74.24,81.92l0,0c5.12,5.12,7.68,11.947,7.68,19.627v170.667
		c0,1.707,0,3.413-0.853,4.267c-0.853,4.267-4.267,6.827-8.533,6.827s-7.68-3.413-7.68-7.68
		c-4.267-49.493-45.227-88.747-94.72-88.747c-52.053,0-93.867,41.813-93.867,93.867c0,2.56,0,5.12,0,7.68
		c0,2.56-0.853,5.12-2.56,6.827C302.787,361.24,300.227,362.093,298.52,362.093z M160.28,345.027h128.853
		c0-61.44,49.493-110.933,110.933-110.933c39.253,0,74.24,20.48,93.867,52.053V164.973c0-2.56-0.853-5.973-3.413-7.68l-73.387-81.92
		c-2.56-1.707-5.973-3.413-8.533-3.413h-384c-4.267,0-8.533,4.267-8.533,8.533v256c0,5.12,4.267,8.533,8.533,8.533h17.067
		c4.267-29.013,29.013-51.2,58.88-51.2S156.013,316.013,160.28,345.027z"/>
</g>
<g>
</g>
<g>
</g>
<g>
</g>
<g>
</g>
<g>
</g>
<g>
</g>
<g>
</g>
<g>
</g>
<g>
</g>
<g>
</g>
<g>
</g>
<g>
</g>
<g>
</g>
<g>
</g>
<g>
</g>
</svg>
