<?xml version="1.0" encoding="iso-8859-1"?>
<!-- Generator: Adobe Illustrator 19.0.0, SVG Export Plug-In . SVG Version: 6.00 Build 0)  -->
<svg version="1.1" id="Layer_1" xmlns="http://www.w3.org/2000/svg" xmlns:xlink="http://www.w3.org/1999/xlink" x="0px" y="0px"
	 viewBox="0 0 515.413 515.413" style="enable-background:new 0 0 515.413 515.413;" xml:space="preserve">
<g transform="translate(1 1)">
	<path style="fill:#FFE100;" d="M472.6,156.867l-66.56-81.92c-3.413-4.267-8.533-6.827-13.653-6.827H48.493
		c-8.533,0.853-15.36,8.533-15.36,17.92v256c0,9.387,6.827,17.067,15.36,17.067H60.44c0-28.16,20.48-51.2,46.08-51.2
		s46.08,23.04,46.08,51.2h204.8c0-28.16,20.48-51.2,46.08-51.2s46.08,23.04,46.08,51.2h11.947c8.533,0,15.36-7.68,15.36-17.067
		V171.373C476.867,165.4,475.16,161.133,472.6,156.867"/>
	<path style="fill:#63D3FD;" d="M7.533,103.107v102.4h66.56c5.973,0,10.24-4.267,10.24-10.24v-81.92
		c0-5.973-4.267-10.24-10.24-10.24H7.533z"/>
	<path style="fill:#FECC00;" d="M127,359.107c0,28.16-17.067,51.2-38.4,51.2s-38.4-23.04-38.4-51.2c0-28.16,17.067-51.2,38.4-51.2
		S127,330.947,127,359.107"/>
	<path style="fill:#FFA800;" d="M101.4,307.907c-2.56,0-5.12,0-7.68,0.853c18.773,3.413,33.28,24.747,33.28,50.347
		c0,25.6-14.507,46.933-33.28,50.347c2.56,0,5.12,0.853,7.68,0.853c28.16,0,51.2-23.04,51.2-51.2
		C152.6,330.947,129.56,307.907,101.4,307.907"/>
	<path style="fill:#FFFFFF;" d="M33.133,342.04v-256c0-9.387,6.827-17.067,15.36-17.067H24.6c-9.387,0-17.067,7.68-17.067,17.067
		v256c0,9.387,7.68,17.067,17.067,17.067h23.893C39.96,359.107,33.133,351.427,33.133,342.04"/>
	<path style="fill:#FFA800;" d="M497.347,156.867l-74.24-81.92c-3.413-3.413-9.387-5.973-14.507-5.973h-16.213
		c5.12,0,10.24,2.56,13.653,6.827l66.56,81.92c3.413,3.413,4.267,8.533,4.267,13.653V342.04c0,9.387-6.827,17.067-15.36,17.067
		H485.4c9.387,0,17.067-7.68,17.067-17.067V171.373C502.467,165.4,500.76,161.133,497.347,156.867"/>
	<path style="fill:#63D3FD;" d="M388.973,205.507h87.893V170.52c0-5.12-1.707-9.387-5.12-13.653l-49.493-53.76h-33.28
		c-3.413,0-5.973,2.56-5.973,5.973v90.453C383,202.947,385.56,205.507,388.973,205.507"/>
	<path style="fill:#3DB9F9;" d="M497.347,156.867l-49.493-53.76h-25.6l49.493,53.76c3.413,3.413,5.12,8.533,5.12,13.653v34.987h25.6
		V170.52C502.467,165.4,500.76,161.133,497.347,156.867"/>
	<g>
		<path style="fill:#63D3FD;" d="M255,115.053v78.507c0,6.827,5.12,11.947,11.947,11.947h61.44c6.827,0,11.947-5.12,11.947-11.947
			v-78.507c0-6.827-5.12-11.947-11.947-11.947h-61.44C260.12,103.107,255,108.227,255,115.053"/>
		<path style="fill:#63D3FD;" d="M127,115.053v78.507c0,6.827,5.12,11.947,11.947,11.947h61.44c6.827,0,11.947-5.12,11.947-11.947
			v-78.507c0-6.827-5.12-11.947-11.947-11.947h-61.44C132.12,103.107,127,108.227,127,115.053"/>
	</g>
	<path style="fill:#FECC00;" d="M502.467,331.8l-11.947-2.56c-17.92-3.413-26.453-24.747-15.36-40.107l7.68-10.24l-17.067-17.067
		l-10.24,6.827c-15.36,10.24-36.693,0.853-39.253-17.067l-2.56-11.947h-23.893l-3.413,16.213
		c-3.413,17.92-23.893,26.453-39.253,16.213l-13.653-9.387l-17.067,17.067l7.68,10.24c11.093,15.36,2.56,36.693-15.36,40.107
		l-11.093,1.707v23.893l12.8,1.707c18.773,2.56,27.307,23.893,17.067,39.253l-6.827,10.24l17.067,17.067l10.24-7.68
		c15.36-11.093,36.693-2.56,40.107,15.36l2.56,11.947h23.893l1.707-9.387c2.56-18.773,24.747-28.16,40.107-16.213l7.68,5.12
		l17.067-17.067l-6.827-10.24c-10.24-15.36-0.853-36.693,17.067-39.253l12.8-1.707V331.8H502.467z"/>
	<path style="fill:#FFE100;" d="M434.2,342.04c0,18.773-15.36,34.133-34.133,34.133s-34.133-15.36-34.133-34.133
		s15.36-34.133,34.133-34.133S434.2,323.267,434.2,342.04"/>
	<path d="M413.72,452.973h-23.893c-4.267,0-7.68-2.56-8.533-6.827l-2.56-11.947c-0.853-5.973-5.12-10.24-10.24-12.8
		c-5.12-2.56-11.093-1.707-16.213,1.707l-10.24,7.68c-3.413,2.56-7.68,1.707-11.093-0.853l-17.067-17.067
		c-2.56-2.56-3.413-7.68-0.853-11.093l6.827-10.24c3.413-5.12,4.267-11.093,1.707-16.213c-2.56-5.12-6.827-9.387-12.8-10.24
		l-12.8-1.707c-4.267-0.853-6.827-4.267-6.827-8.533v-23.893c0-4.267,2.56-7.68,6.827-8.533l11.947-2.56
		c5.973-0.853,10.24-5.12,12.8-10.24S322.413,298.52,319,293.4l-7.68-10.24c-2.56-3.413-1.707-8.533,0.853-11.093L329.24,255
		c2.56-2.56,7.68-3.413,11.093-0.853l13.653,9.387c5.12,3.413,10.24,3.413,16.213,1.707c5.12-2.56,9.387-6.827,10.24-12.8
		l3.413-16.213c0.853-4.267,4.267-6.827,8.533-6.827h23.893c4.267,0,7.68,3.413,8.533,6.827l1.707,12.8
		c0.853,5.973,4.267,10.24,10.24,12.8c5.12,2.56,11.093,1.707,16.213-1.707l10.24-6.827c3.413-2.56,7.68-1.707,11.093,0.853
		l17.067,17.067c2.56,2.56,3.413,7.68,0.853,11.093l-7.68,10.24c-3.413,5.12-4.267,10.24-1.707,16.213
		c2.56,5.12,6.827,9.387,12.8,10.24l11.947,2.56c4.267,0.853,6.827,4.267,6.827,8.533v23.893c0,4.267-3.413,7.68-6.827,8.533
		l-12.8,1.707c-5.973,0.853-10.24,4.267-12.8,10.24c-2.56,5.12-1.707,11.093,1.707,16.213l6.827,10.24
		c2.56,3.413,1.707,7.68-0.853,11.093L472.6,429.08c-3.413,2.56-7.68,3.413-11.093,0.853l-7.68-5.12
		c-5.12-3.413-11.093-4.267-16.213-1.707c-5.12,2.56-9.387,6.827-10.24,12.8l-1.707,9.387
		C421.4,449.56,417.987,452.973,413.72,452.973z M397.507,435.907h9.387V434.2c1.707-11.947,9.387-21.333,20.48-26.453
		c11.093-4.267,23.04-3.413,33.28,4.267l1.707,0.853l6.827-6.827l-4.267-4.267c-6.827-9.387-7.68-22.187-3.413-32.427
		c4.267-11.093,14.507-17.92,25.6-19.627l5.973-0.853v-9.387l-5.12-0.853c-11.093-2.56-20.48-10.24-24.747-20.48
		c-4.267-11.093-2.56-23.04,4.267-32.427l3.413-4.267l-6.827-7.68l-4.267,3.413c-9.387,6.827-22.187,7.68-32.427,3.413
		c-11.093-4.267-17.92-14.507-19.627-25.6l-0.853-6.827h-9.387l-1.707,9.387c-2.56,11.093-9.387,20.48-20.48,24.747
		c-10.24,4.267-22.187,3.413-31.573-3.413l-7.68-5.12l-6.827,6.827l3.413,4.267c6.827,9.387,8.533,21.333,4.267,32.427
		s-13.653,18.773-24.747,20.48l-5.973,1.707v9.387l5.973,0.853c11.947,1.707,21.333,9.387,25.6,19.627
		c4.267,11.093,3.413,23.04-3.413,32.427l-2.56,4.267l6.827,6.827l4.267-3.413c9.387-6.827,21.333-8.533,32.427-4.267
		c11.093,4.267,18.773,13.653,20.48,24.747L397.507,435.907z"/>
	<path d="M400.067,384.707c-23.893,0-42.667-18.773-42.667-42.667s18.773-42.667,42.667-42.667
		c23.893,0,42.667,18.773,42.667,42.667S423.96,384.707,400.067,384.707z M400.067,316.44c-14.507,0-25.6,11.093-25.6,25.6
		s11.093,25.6,25.6,25.6c14.507,0,25.6-11.093,25.6-25.6S414.573,316.44,400.067,316.44z"/>
	<path d="M255,282.307H7.533c-5.12,0-8.533-3.413-8.533-8.533c0-5.12,3.413-8.533,8.533-8.533H255c5.12,0,8.533,3.413,8.533,8.533
		C263.533,278.893,260.12,282.307,255,282.307z"/>
	<path d="M220.867,248.173H7.533c-5.12,0-8.533-3.413-8.533-8.533c0-5.12,3.413-8.533,8.533-8.533h213.333
		c5.12,0,8.533,3.413,8.533,8.533C229.4,244.76,225.987,248.173,220.867,248.173z"/>
	<path d="M511,214.04H388.973c-7.68,0-14.507-6.827-14.507-14.507V109.08c0-7.68,6.827-14.507,14.507-14.507h63.147l51.2,57.173
		c5.12,5.12,7.68,11.947,7.68,19.627L511,214.04L511,214.04z M391.533,196.973h102.4V170.52c0-2.56-0.853-5.973-3.413-7.68
		l-46.933-51.2h-52.053V196.973z"/>
	<path d="M74.093,214.04H-1V94.573h75.093c10.24,0,18.773,8.533,18.773,18.773v81.92C92.867,205.507,84.333,214.04,74.093,214.04z
		 M16.067,196.973h58.027c0.853,0,1.707-0.853,1.707-1.707v-81.92c0-0.853-0.853-1.707-1.707-1.707H16.067V196.973z"/>
	<path d="M328.387,214.04h-61.44c-11.093,0-20.48-9.387-20.48-20.48v-78.507c0-11.093,9.387-20.48,20.48-20.48h61.44
		c11.093,0,20.48,9.387,20.48,20.48v78.507C348.867,204.653,339.48,214.04,328.387,214.04z M266.947,111.64
		c-1.707,0-3.413,1.707-3.413,3.413v78.507c0,1.707,1.707,3.413,3.413,3.413h61.44c1.707,0,3.413-1.707,3.413-3.413v-78.507
		c0-1.707-1.707-3.413-3.413-3.413H266.947z"/>
	<path d="M200.387,214.04h-61.44c-11.093,0-20.48-9.387-20.48-20.48v-78.507c0-11.093,9.387-20.48,20.48-20.48h61.44
		c11.093,0,20.48,9.387,20.48,20.48v78.507C220.867,204.653,211.48,214.04,200.387,214.04z M138.947,111.64
		c-1.707,0-3.413,1.707-3.413,3.413v78.507c0,1.707,1.707,3.413,3.413,3.413h61.44c1.707,0,3.413-1.707,3.413-3.413v-78.507
		c0-1.707-1.707-3.413-3.413-3.413H138.947z"/>
	<path d="M101.4,418.84c-33.28,0-59.733-26.453-59.733-59.733s26.453-59.733,59.733-59.733s59.733,26.453,59.733,59.733
		S134.68,418.84,101.4,418.84z M101.4,316.44c-23.893,0-42.667,18.773-42.667,42.667c0,23.893,18.773,42.667,42.667,42.667
		s42.667-18.773,42.667-42.667C144.067,335.213,125.293,316.44,101.4,316.44z"/>
	<path d="M118.467,359.107c0,9.387-7.68,17.067-17.067,17.067s-17.067-7.68-17.067-17.067c0-9.387,7.68-17.067,17.067-17.067
		S118.467,349.72,118.467,359.107"/>
	<path d="M314.733,367.64H152.6c-5.12,0-8.533-3.413-8.533-8.533c0-23.893-18.773-42.667-42.667-42.667
		s-42.667,18.773-42.667,42.667c0,5.12-3.413,8.533-8.533,8.533H24.6c-14.507,0-25.6-11.947-25.6-25.6v-256
		c0-14.507,11.947-25.6,25.6-25.6h384c7.68,0,15.36,3.413,21.333,9.387l74.24,81.92l0,0c5.12,5.12,7.68,11.947,7.68,19.627v161.28
		c0,2.56-0.853,5.12-3.413,6.827c-1.707,1.707-4.267,2.56-6.827,1.707l-11.947-2.56c-11.093-2.56-20.48-10.24-24.747-20.48
		c-4.267-11.093-2.56-23.04,4.267-32.427l3.413-4.267l-8.533-7.68l-4.267,3.413c-9.387,6.827-22.187,7.68-32.427,3.413
		c-11.093-4.267-17.92-14.507-19.627-25.6l-0.853-6.827h-9.387l-1.707,9.387c-2.56,11.093-9.387,20.48-20.48,24.747
		c-10.24,4.267-22.187,3.413-31.573-3.413l-7.68-5.12l-6.827,6.827l3.413,4.267c6.827,9.387,8.533,21.333,4.267,32.427
		s-13.653,18.773-24.747,20.48l-5.973,1.707v9.387l5.973,0.853c1.707,0,3.413,0.853,5.12,1.707c4.267,1.707,6.827,5.12,5.973,9.387
		C322.413,364.227,319,367.64,314.733,367.64z M160.28,350.573h128.853V331.8c0-4.267,2.56-7.68,6.827-8.533l11.947-2.56
		c5.973-0.853,10.24-5.12,12.8-10.24c2.56-5.12,1.707-11.093-1.707-16.213l-7.68-10.24c-2.56-3.413-1.707-7.68,0.853-11.093
		l17.067-17.067c2.56-2.56,7.68-3.413,11.093-0.853l13.653,9.387c5.12,3.413,10.24,3.413,16.213,1.707
		c5.12-2.56,9.387-6.827,10.24-11.947l3.413-16.213c0.853-4.267,4.267-6.827,8.533-6.827h23.893c4.267,0,7.68,3.413,8.533,6.827
		l1.707,12.8c0.853,5.973,4.267,10.24,10.24,12.8c5.12,2.56,11.093,1.707,16.213-1.707l10.24-6.827
		c3.413-2.56,7.68-1.707,11.093,0.853l17.067,17.067c2.56,2.56,3.413,7.68,0.853,11.093l-7.68,10.24
		c-3.413,5.12-4.267,10.24-1.707,16.213s6.827,9.387,12.8,10.24h2.56V170.52c0-2.56-0.853-5.973-3.413-7.68l-77.653-81.92
		c-2.56-1.707-5.973-3.413-8.533-3.413h-384c-4.267,0-8.533,4.267-8.533,8.533v256c0,5.12,4.267,8.533,8.533,8.533h17.067
		c4.267-29.013,29.013-51.2,58.88-51.2S156.013,321.56,160.28,350.573z"/>
	<path d="M485.4,367.64c-4.267,0-7.68-3.413-8.533-6.827c-0.853-4.267,1.707-8.533,5.973-9.387l2.56,7.68l-2.56-8.533
		c1.707-0.853,3.413-0.853,5.12-1.707l2.56-0.853c4.267-0.853,8.533,1.707,9.387,5.973c0.853,4.267-0.853,8.533-4.267,10.24
		C493.08,366.787,488.813,367.64,485.4,367.64L485.4,367.64z"/>
</g>
<g>
</g>
<g>
</g>
<g>
</g>
<g>
</g>
<g>
</g>
<g>
</g>
<g>
</g>
<g>
</g>
<g>
</g>
<g>
</g>
<g>
</g>
<g>
</g>
<g>
</g>
<g>
</g>
<g>
</g>
</svg>
