<?xml version="1.0" encoding="iso-8859-1"?>
<!-- Generator: Adobe Illustrator 19.0.0, SVG Export Plug-In . SVG Version: 6.00 Build 0)  -->
<svg version="1.1" id="Layer_1" xmlns="http://www.w3.org/2000/svg" xmlns:xlink="http://www.w3.org/1999/xlink" x="0px" y="0px"
	 viewBox="0 0 512 512" style="enable-background:new 0 0 512 512;" xml:space="preserve">
<g transform="translate(1)">
	<path style="fill:#FFE100;" d="M502.467,106.667H7.533C7.533,69.12,38.253,38.4,75.8,38.4h358.4
		C471.747,38.4,502.467,69.12,502.467,106.667"/>
	<path style="fill:#FFA800;" d="M434.2,38.4h-25.6c37.547,0,68.267,30.72,68.267,68.267h25.6C502.467,69.12,471.747,38.4,434.2,38.4
		"/>
	<path style="fill:#FFFFFF;" d="M75.8,38.4h25.6c-37.547,0-68.267,30.72-68.267,68.267h-25.6C7.533,69.12,38.253,38.4,75.8,38.4"/>
	<g>
		<path style="fill:#FFE100;" d="M58.733,473.6L58.733,473.6c-9.387,0-17.067-7.68-17.067-17.067V106.667H75.8v349.867
			C75.8,465.92,68.12,473.6,58.733,473.6"/>
		<path style="fill:#FFE100;" d="M451.267,473.6L451.267,473.6c-9.387,0-17.067-7.68-17.067-17.067V106.667h34.133v349.867
			C468.333,465.92,460.653,473.6,451.267,473.6"/>
	</g>
	<path style="fill:#FFA800;" d="M451.267,106.667v349.867c0,5.973-3.413,11.947-8.533,14.507c2.56,1.707,5.12,2.56,8.533,2.56
		c9.387,0,17.067-7.68,17.067-17.067V106.667H451.267z"/>
	<path style="fill:#FFFFFF;" d="M58.733,106.667v349.867c0,5.973,3.413,11.947,8.533,14.507c-2.56,1.707-5.12,2.56-8.533,2.56
		c-9.387,0-17.067-7.68-17.067-17.067V106.667H58.733z"/>
	<path style="fill:#FFE100;" d="M366.787,294.4H255H143.213c-4.267,0-7.68,3.413-7.68,7.68v77.653H255h119.467V302.08
		C374.467,297.813,371.053,294.4,366.787,294.4"/>
	<path style="fill:#FFA800;" d="M366.787,294.4h-25.6c4.267,0,7.68,3.413,7.68,7.68v77.653h25.6V302.08
		C374.467,297.813,371.053,294.4,366.787,294.4"/>
	<path style="fill:#FFE100;" d="M374.467,413.867H135.533c-9.387,0-17.067-7.68-17.067-17.067l0,0
		c0-9.387,7.68-17.067,17.067-17.067h238.933c9.387,0,17.067,7.68,17.067,17.067l0,0
		C391.533,406.187,383.853,413.867,374.467,413.867"/>
	<path style="fill:#FFA800;" d="M374.467,379.733h-25.6c9.387,0,17.067,7.68,17.067,17.067s-7.68,17.067-17.067,17.067h25.6
		c9.387,0,17.067-7.68,17.067-17.067S383.853,379.733,374.467,379.733"/>
	<g>
		<polygon style="fill:#63D3FD;" points="118.467,217.6 212.333,217.6 212.333,149.333 118.467,149.333 		"/>
		<polygon style="fill:#63D3FD;" points="297.667,217.6 391.533,217.6 391.533,149.333 297.667,149.333 		"/>
	</g>
	<g>
		<polygon style="fill:#3DB9F9;" points="365.933,217.6 391.533,217.6 391.533,149.333 365.933,149.333 		"/>
		<polygon style="fill:#3DB9F9;" points="186.733,217.6 212.333,217.6 212.333,149.333 186.733,149.333 		"/>
	</g>
	<path d="M511,115.2H-1v-8.533c0-42.667,34.133-76.8,76.8-76.8h358.4c42.667,0,76.8,34.133,76.8,76.8V115.2z M16.92,98.133h477.013
		c-4.267-29.013-29.013-51.2-58.88-51.2H75.8C45.933,46.933,21.187,69.12,16.92,98.133z"/>
	<path d="M58.733,482.133c-14.507,0-25.6-11.093-25.6-25.6v-358.4h51.2v358.4C84.333,471.04,73.24,482.133,58.733,482.133z
		 M50.2,115.2v341.333c0,5.12,3.413,8.533,8.533,8.533s8.533-3.413,8.533-8.533V115.2H50.2z"/>
	<path d="M451.267,482.133c-14.507,0-25.6-11.093-25.6-25.6v-358.4h51.2v358.4C476.867,471.04,465.773,482.133,451.267,482.133z
		 M442.733,115.2v341.333c0,5.12,3.413,8.533,8.533,8.533s8.533-3.413,8.533-8.533V115.2H442.733z"/>
	<path d="M374.467,388.267H135.533c-5.12,0-8.533-3.413-8.533-8.533V302.08c0-8.533,6.827-16.213,16.213-16.213h223.573
		c8.533,0,16.213,7.68,16.213,16.213v77.653C383,384.853,379.587,388.267,374.467,388.267z M144.067,371.2h221.867v-68.267H144.067
		V371.2z"/>
	<path d="M374.467,422.4H135.533c-14.507,0-25.6-11.093-25.6-25.6s11.093-25.6,25.6-25.6h238.933c14.507,0,25.6,11.093,25.6,25.6
		S388.973,422.4,374.467,422.4z M135.533,388.267c-5.12,0-8.533,3.413-8.533,8.533s3.413,8.533,8.533,8.533h238.933
		c5.12,0,8.533-3.413,8.533-8.533s-3.413-8.533-8.533-8.533H135.533z"/>
	<path d="M374.467,482.133c-5.12,0-8.533-3.413-8.533-8.533v-59.733c0-5.12,3.413-8.533,8.533-8.533c5.12,0,8.533,3.413,8.533,8.533
		V473.6C383,478.72,379.587,482.133,374.467,482.133z"/>
	<path d="M135.533,482.133c-5.12,0-8.533-3.413-8.533-8.533v-59.733c0-5.12,3.413-8.533,8.533-8.533s8.533,3.413,8.533,8.533V473.6
		C144.067,478.72,140.653,482.133,135.533,482.133z"/>
	<path d="M255,302.933c-5.12,0-8.533-3.413-8.533-8.533V106.667c0-5.12,3.413-8.533,8.533-8.533s8.533,3.413,8.533,8.533V294.4
		C263.533,299.52,260.12,302.933,255,302.933z"/>
	<path d="M212.333,226.133h-93.867c-5.12,0-8.533-3.413-8.533-8.533v-68.267c0-5.12,3.413-8.533,8.533-8.533h93.867
		c5.12,0,8.533,3.413,8.533,8.533V217.6C220.867,222.72,217.453,226.133,212.333,226.133z M127,209.067h76.8v-51.2H127V209.067z"/>
	<path d="M391.533,226.133h-93.867c-5.12,0-8.533-3.413-8.533-8.533v-68.267c0-5.12,3.413-8.533,8.533-8.533h93.867
		c5.12,0,8.533,3.413,8.533,8.533V217.6C400.067,222.72,396.653,226.133,391.533,226.133z M306.2,209.067H383v-51.2h-76.8V209.067z"
		/>
	<path d="M272.067,345.6h-34.133c-5.12,0-8.533-3.413-8.533-8.533s3.413-8.533,8.533-8.533h34.133c5.12,0,8.533,3.413,8.533,8.533
		S277.187,345.6,272.067,345.6z"/>
	<path d="M340.333,345.6h-25.6c-5.12,0-8.533-3.413-8.533-8.533s3.413-8.533,8.533-8.533h25.6c5.12,0,8.533,3.413,8.533,8.533
		S345.453,345.6,340.333,345.6z"/>
	<path d="M195.267,345.6h-25.6c-5.12,0-8.533-3.413-8.533-8.533s3.413-8.533,8.533-8.533h25.6c5.12,0,8.533,3.413,8.533,8.533
		S200.387,345.6,195.267,345.6z"/>
</g>
<g>
</g>
<g>
</g>
<g>
</g>
<g>
</g>
<g>
</g>
<g>
</g>
<g>
</g>
<g>
</g>
<g>
</g>
<g>
</g>
<g>
</g>
<g>
</g>
<g>
</g>
<g>
</g>
<g>
</g>
</svg>
