<?xml version="1.0" encoding="iso-8859-1"?>
<!-- Generator: Adobe Illustrator 19.0.0, SVG Export Plug-In . SVG Version: 6.00 Build 0)  -->
<svg version="1.1" id="Layer_1" xmlns="http://www.w3.org/2000/svg" xmlns:xlink="http://www.w3.org/1999/xlink" x="0px" y="0px"
	 viewBox="0 0 512.853 512.853" style="enable-background:new 0 0 512.853 512.853;" xml:space="preserve">
<g transform="translate(1 1)">
	<path style="fill:#FFE100;" d="M472.6,164.12L406.04,82.2c-3.413-4.267-8.533-6.827-13.653-6.827H48.493
		c-8.533,0.853-15.36,8.533-15.36,17.92v256c0,9.387,6.827,17.067,15.36,17.067H60.44c0-28.16,20.48-51.2,46.08-51.2
		s46.08,23.04,46.08,51.2h204.8c0-28.16,20.48-51.2,46.08-51.2s46.08,23.04,46.08,51.2h11.947c8.533,0,15.36-7.68,15.36-17.067
		V178.627C476.867,172.653,475.16,168.387,472.6,164.12"/>
	<path style="fill:#63D3FD;" d="M7.533,110.36v102.4h66.56c5.973,0,10.24-4.267,10.24-10.24V120.6c0-5.973-4.267-10.24-10.24-10.24
		H7.533z"/>
	<path style="fill:#FECC00;" d="M127,366.36c0,28.16-17.067,51.2-38.4,51.2s-38.4-23.04-38.4-51.2c0-28.16,17.067-51.2,38.4-51.2
		S127,338.2,127,366.36"/>
	<path style="fill:#FFA800;" d="M101.4,315.16c-2.56,0-5.12,0-7.68,0.853C112.493,319.427,127,340.76,127,366.36
		c0,25.6-14.507,46.933-33.28,50.347c2.56,0,5.12,0.853,7.68,0.853c28.16,0,51.2-23.04,51.2-51.2
		C152.6,338.2,129.56,315.16,101.4,315.16"/>
	<path style="fill:#FFFFFF;" d="M33.133,349.293v-256c0-9.387,6.827-17.067,15.36-17.067H24.6c-9.387,0-17.067,7.68-17.067,17.067
		v256c0,9.387,7.68,17.067,17.067,17.067h23.893C39.96,366.36,33.133,358.68,33.133,349.293"/>
	<path style="fill:#FFA800;" d="M497.347,164.12l-74.24-81.92c-3.413-3.413-9.387-5.973-14.507-5.973h-16.213
		c5.12,0,10.24,2.56,13.653,6.827l66.56,81.92c3.413,3.413,4.267,8.533,4.267,13.653v170.667c0,9.387-6.827,17.067-15.36,17.067
		H485.4c9.387,0,17.067-7.68,17.067-17.067V178.627C502.467,172.653,500.76,168.387,497.347,164.12"/>
	<path style="fill:#63D3FD;" d="M388.973,212.76h87.893v-34.987c0-5.12-1.707-9.387-5.12-13.653l-49.493-53.76h-33.28
		c-3.413,0-5.973,2.56-5.973,5.973v90.453C383,210.2,385.56,212.76,388.973,212.76"/>
	<path style="fill:#3DB9F9;" d="M497.347,164.12l-49.493-53.76h-25.6l49.493,53.76c3.413,3.413,5.12,8.533,5.12,13.653v34.987h25.6
		v-34.987C502.467,172.653,500.76,168.387,497.347,164.12"/>
	<g>
		<path style="fill:#63D3FD;" d="M255,122.307v78.507c0,6.827,5.12,11.947,11.947,11.947h61.44c6.827,0,11.947-5.12,11.947-11.947
			v-78.507c0-6.827-5.12-11.947-11.947-11.947h-61.44C260.12,110.36,255,115.48,255,122.307"/>
		<path style="fill:#63D3FD;" d="M127,122.307v78.507c0,6.827,5.12,11.947,11.947,11.947h61.44c6.827,0,11.947-5.12,11.947-11.947
			v-78.507c0-6.827-5.12-11.947-11.947-11.947h-61.44C132.12,110.36,127,115.48,127,122.307"/>
	</g>
	<path style="fill:#FECC00;" d="M499.053,363.8l-0.853,1.707c-60.587,93.013-160.427,93.013-221.013,0l0,0l0.853-1.707
		C338.627,270.787,438.467,270.787,499.053,363.8L499.053,363.8z"/>
	<path style="fill:#63D3FD;" d="M436.76,344.173c0,28.16-22.187,50.347-50.347,50.347c-28.16,0-50.347-22.187-50.347-50.347
		c0-28.16,22.187-50.347,50.347-50.347C413.72,293.827,436.76,316.013,436.76,344.173"/>
	<path d="M387.267,443.16c-45.227,0-86.187-26.453-117.76-73.387c-1.707-2.56-1.707-6.827,0-9.387l0.853-1.707
		c30.72-47.787,72.533-73.387,117.76-73.387s86.187,26.453,117.76,73.387c1.707,2.56,1.707,6.827,0,9.387l-0.853,1.707
		C474.307,416.707,432.493,443.16,387.267,443.16z M287.427,364.653c27.307,40.107,63.147,61.44,99.84,61.44
		c37.547,0,73.387-22.187,100.693-62.293c-27.307-39.253-63.147-61.44-99.84-61.44C350.573,302.36,314.733,324.547,287.427,364.653z
		"/>
	<path d="M386.413,403.053c-32.427,0-58.88-26.453-58.88-58.88s26.453-58.88,58.88-58.88s58.88,26.453,58.88,58.88
		S418.84,403.053,386.413,403.053z M386.413,302.36c-23.04,0-41.813,18.773-41.813,41.813c0,23.04,18.773,41.813,41.813,41.813
		s41.813-18.773,41.813-41.813C428.227,321.133,409.453,302.36,386.413,302.36z"/>
	<path d="M280.6,289.56H16.067c-5.12,0-8.533-3.413-8.533-8.533c0-5.12,3.413-8.533,8.533-8.533H280.6
		c5.12,0,8.533,3.413,8.533,8.533C289.133,286.147,285.72,289.56,280.6,289.56z"/>
	<path d="M246.467,255.427h-230.4c-5.12,0-8.533-3.413-8.533-8.533s3.413-8.533,8.533-8.533h230.4c5.12,0,8.533,3.413,8.533,8.533
		S251.587,255.427,246.467,255.427z"/>
	<path d="M511,221.293H388.973c-7.68,0-14.507-6.827-14.507-14.507v-90.453c0-7.68,6.827-14.507,14.507-14.507h63.147L503.32,159
		c5.12,5.12,7.68,11.947,7.68,19.627L511,221.293L511,221.293z M391.533,204.227h102.4v-26.453c0-2.56-0.853-5.973-3.413-7.68
		l-46.933-51.2h-52.053V204.227z"/>
	<path d="M74.093,221.293H-1V101.827h75.093c10.24,0,18.773,8.533,18.773,18.773v81.92C92.867,212.76,84.333,221.293,74.093,221.293
		z M16.067,204.227h58.027c0.853,0,1.707-0.853,1.707-1.707V120.6c0-0.853-0.853-1.707-1.707-1.707H16.067V204.227z"/>
	<path d="M328.387,221.293h-61.44c-11.093,0-20.48-9.387-20.48-20.48v-78.507c0-11.093,9.387-20.48,20.48-20.48h61.44
		c11.093,0,20.48,9.387,20.48,20.48v78.507C348.867,211.907,339.48,221.293,328.387,221.293z M266.947,118.893
		c-1.707,0-3.413,1.707-3.413,3.413v78.507c0,1.707,1.707,3.413,3.413,3.413h61.44c1.707,0,3.413-1.707,3.413-3.413v-78.507
		c0-1.707-1.707-3.413-3.413-3.413H266.947z"/>
	<path d="M200.387,221.293h-61.44c-11.093,0-20.48-9.387-20.48-20.48v-78.507c0-11.093,9.387-20.48,20.48-20.48h61.44
		c11.093,0,20.48,9.387,20.48,20.48v78.507C220.867,211.907,211.48,221.293,200.387,221.293z M138.947,118.893
		c-1.707,0-3.413,1.707-3.413,3.413v78.507c0,1.707,1.707,3.413,3.413,3.413h61.44c1.707,0,3.413-1.707,3.413-3.413v-78.507
		c0-1.707-1.707-3.413-3.413-3.413H138.947z"/>
	<path d="M101.4,426.093c-33.28,0-59.733-26.453-59.733-59.733s26.453-59.733,59.733-59.733s59.733,26.453,59.733,59.733
		S134.68,426.093,101.4,426.093z M101.4,323.693c-23.893,0-42.667,18.773-42.667,42.667c0,23.893,18.773,42.667,42.667,42.667
		s42.667-18.773,42.667-42.667C144.067,342.467,125.293,323.693,101.4,323.693z"/>
	<path d="M118.467,366.36c0,9.387-7.68,17.067-17.067,17.067s-17.067-7.68-17.067-17.067c0-9.387,7.68-17.067,17.067-17.067
		S118.467,356.973,118.467,366.36"/>
	<path d="M294.253,374.893H144.067v-8.533c0-23.893-18.773-42.667-42.667-42.667s-42.667,18.773-42.667,42.667v8.533H24.6
		c-14.507,0-25.6-11.947-25.6-25.6v-256c0-14.507,11.947-25.6,25.6-25.6h384c7.68,0,15.36,3.413,21.333,9.387l74.24,81.92
		c5.12,5.12,7.68,11.947,7.68,19.627v170.667c0,6.827-2.56,13.653-7.68,17.92l-7.68,7.68l-5.973-8.533
		c-28.16-40.96-64-64-102.4-63.147c-37.547,0-73.387,22.187-100.693,62.293L294.253,374.893z M160.28,357.827h110.933
		c30.72-46.08,71.68-71.68,116.053-72.533h0.853c39.253,0,75.947,19.627,105.813,56.32v-163.84c0-2.56-0.853-5.973-3.413-7.68
		l-73.387-81.92c-2.56-1.707-5.973-3.413-8.533-3.413h-384c-4.267,0-8.533,4.267-8.533,8.533v256c0,5.12,4.267,8.533,8.533,8.533
		h17.067c4.267-29.013,29.013-51.2,58.88-51.2S156.013,328.813,160.28,357.827z"/>
</g>
<g>
</g>
<g>
</g>
<g>
</g>
<g>
</g>
<g>
</g>
<g>
</g>
<g>
</g>
<g>
</g>
<g>
</g>
<g>
</g>
<g>
</g>
<g>
</g>
<g>
</g>
<g>
</g>
<g>
</g>
</svg>
