<svg height="512pt" viewBox="0 0 512 512" width="512pt" xmlns="http://www.w3.org/2000/svg"><path d="m512 256c0 141.386719-114.613281 256-256 256s-256-114.613281-256-256 114.613281-256 256-256 256 114.613281 256 256zm0 0" fill="#ffb74f"/><path d="m512 256c0-25.191406-3.65625-49.527344-10.4375-72.519531l-98.625-99.089844c-5.410156-5.757813-13.074219-9.367187-21.546875-9.367187h-250.78125c-16.285156 0-29.609375 13.324218-29.609375 29.609374v302.730469c0 8.277344 3.445312 15.785157 8.96875 21.167969 0 0 33.234375 33.269531 72.796875 72.820312 23.207031 6.914063 47.78125 10.648438 73.234375 10.648438 141.386719 0 256-114.613281 256-256zm0 0" fill="#ff8900"/><path d="m381.390625 436.976562h-250.78125c-16.285156 0-29.609375-13.324218-29.609375-29.609374v-302.734376c0-16.285156 13.324219-29.609374 29.609375-29.609374h250.78125c16.285156 0 29.609375 13.324218 29.609375 29.609374v302.734376c0 16.285156-13.324219 29.609374-29.609375 29.609374zm0 0" fill="#ff0335"/><path d="m411 104.628906v302.742188c0 16.277344-13.320312 29.609375-29.609375 29.609375h-125.390625v-361.960938h125.390625c16.289063 0 29.609375 13.332031 29.609375 29.609375zm0 0" fill="#9a0011"/><path d="m122.714844 95.425781h266.570312v317.058594h-266.570312zm0 0" fill="#fff"/><path d="m256 95.421875h133.289062v317.058594h-133.289062zm0 0" fill="#fff5cb"/><path d="m122.714844 387.9375h266.570312v24.546875h-266.570312zm0 0" fill="#00ffea"/><path d="m256 387.941406h133.289062v24.539063h-133.289062zm0 0" fill="#00ad95"/><path d="m291.148438 131.902344h-70.296876c-15.324218 0-27.746093-12.421875-27.746093-27.746094v-29.132812h125.792969v29.132812c0 15.324219-12.425782 27.746094-27.75 27.746094zm0 0" fill="#004eb1"/><path d="m318.898438 75.019531v29.140625c0 15.320313-12.429688 27.738282-27.75 27.738282h-35.148438v-56.878907zm0 0" fill="#002d6b"/><path d="m335.929688 258.929688c0 44.144531-35.785157 79.933593-79.929688 79.933593s-79.929688-35.789062-79.929688-79.933593c0-44.144532 35.785157-79.929688 79.929688-79.929688s79.929688 35.785156 79.929688 79.929688zm0 0" fill="#ff0335"/><path d="m335.929688 258.929688c0 44.148437-35.789063 79.929687-79.929688 79.929687v-159.859375c44.140625 0 79.929688 35.789062 79.929688 79.929688zm0 0" fill="#9a0011"/><path d="m303.140625 282.972656-24.042969-24.042968 24.042969-24.039063-23.097656-23.101563-24.042969 24.042969-24.042969-24.042969-23.097656 23.101563 24.042969 24.039063-24.042969 24.042968 23.097656 23.097656 24.042969-24.039062 24.042969 24.039062zm0 0" fill="#fff"/><path d="m279.101562 258.929688 24.039063 24.039062-23.101563 23.101562-24.039062-24.039062v-46.203125l24.039062-24.039063 23.101563 23.101563zm0 0" fill="#fff5cb"/></svg>