<svg height="512" viewBox="0 0 256 256" width="512" xmlns="http://www.w3.org/2000/svg"><rect fill="#cecece" height="151.106" rx="13.665" width="219.26" x="18.37" y="48.543"/><path d="m28.37 185.984v-123.776a13.681 13.681 0 0 1 13.665-13.665h-10a13.681 13.681 0 0 0 -13.665 13.665v123.776a13.681 13.681 0 0 0 13.665 13.665h10a13.681 13.681 0 0 1 -13.665-13.665z" fill="#afafaf"/><path d="m227.63 185.984v-123.776a13.681 13.681 0 0 0 -13.665-13.665h10a13.681 13.681 0 0 1 13.665 13.665v123.776a13.681 13.681 0 0 1 -13.665 13.665h-10a13.681 13.681 0 0 0 13.665-13.665z" fill="#e2e2e2"/><rect fill="#63bce7" height="122.288" rx="5.256" width="202.442" x="26.779" y="56.952"/><path d="m36.779 173.984v-111.776a5.271 5.271 0 0 1 5.256-5.256h-10a5.271 5.271 0 0 0 -5.256 5.256v111.776a5.271 5.271 0 0 0 5.256 5.256h10a5.271 5.271 0 0 1 -5.256-5.256z" fill="#6377e7"/><path d="m219.221 173.984v-111.776a5.271 5.271 0 0 0 -5.256-5.256h10a5.271 5.271 0 0 1 5.256 5.256v111.776a5.271 5.271 0 0 1 -5.256 5.256h-10a5.271 5.271 0 0 0 5.256-5.256z" fill="#63e2e7"/><path d="m89.809 221.807h76.383v9.197h-76.383z" fill="#9e9e9e"/><path d="m89.809 221.807h10v9.197h-10z" fill="#707070"/><path d="m100.67 199.649h54.659v22.158h-54.659z" fill="#cecece"/><path d="m100.67 199.649h10v22.158h-10z" fill="#afafaf"/><circle cx="128" cy="189.445" fill="#9e9e9e" r="4.5"/><circle cx="128" cy="77.439" fill="#f8af23" r="63.417"/><path d="m74.583 77.439a63.408 63.408 0 0 1 58.417-63.202c-1.651-.129-3.315-.215-5-.215a63.417 63.417 0 0 0 0 126.833c1.685 0 3.349-.086 5-.215a63.408 63.408 0 0 1 -58.417-63.201z" fill="#f87023"/><path d="m181.417 77.439a63.408 63.408 0 0 0 -58.417-63.202c1.651-.129 3.315-.215 5-.215a63.417 63.417 0 0 1 0 126.833c-1.685 0-3.349-.086-5-.215a63.408 63.408 0 0 0 58.417-63.201z" fill="#f8d323"/><path d="m139.552 77.44 22.548-24.14a8.442 8.442 0 0 0 -12.338-11.526l-21.762 23.3-21.764-23.3a8.442 8.442 0 0 0 -12.336 11.526l22.548 24.14-22.548 24.137a8.442 8.442 0 1 0 12.336 11.523l21.764-23.294 21.764 23.3a8.442 8.442 0 1 0 12.336-11.529z" fill="#f46275"/><g fill="#3f3679"><path d="m128 195.444a6 6 0 1 0 -6-6 6.007 6.007 0 0 0 6 6zm0-9a3 3 0 1 1 -3 3 3 3 0 0 1 3-3z"/><path d="m27.323 240.478h-18a1.5 1.5 0 0 0 0 3h18a1.5 1.5 0 0 0 0-3z"/><path d="m246.68 240.478h-18a1.5 1.5 0 1 0 0 3h18a1.5 1.5 0 0 0 0-3z"/><path d="m218.479 240.478h-180.958a1.5 1.5 0 1 0 0 3h180.958a1.5 1.5 0 1 0 0-3z"/><path d="m9.32 232.5h237.36a1.5 1.5 0 0 0 0-3h-78.989v-7.7a1.5 1.5 0 0 0 -1.5-1.5h-9.362v-19.151h67.137a15.182 15.182 0 0 0 15.164-15.165v-123.776a15.182 15.182 0 0 0 -15.164-15.165h-38.628a64.879 64.879 0 0 0 -114.676 0h-38.628a15.182 15.182 0 0 0 -15.164 15.165v123.776a15.182 15.182 0 0 0 15.164 15.165h67.137v19.158h-9.362a1.5 1.5 0 0 0 -1.5 1.5v7.7h-78.989a1.5 1.5 0 0 0 0 3zm118.68-216.978a61.917 61.917 0 1 1 -61.917 61.917 61.986 61.986 0 0 1 61.917-61.917zm62.078 42.93h33.888a3.759 3.759 0 0 1 3.755 3.755v111.777a3.759 3.759 0 0 1 -3.755 3.755h-191.932a3.759 3.759 0 0 1 -3.755-3.755v-111.776a3.759 3.759 0 0 1 3.755-3.755h33.888a64.917 64.917 0 1 0 124.156 0zm-170.208 127.532v-123.776a12.178 12.178 0 0 1 12.164-12.165h37.133c-.824 1.763-1.578 3.565-2.244 5.409h-34.889a6.763 6.763 0 0 0 -6.755 6.755v111.777a6.763 6.763 0 0 0 6.755 6.755h191.932a6.763 6.763 0 0 0 6.755-6.755v-111.776a6.763 6.763 0 0 0 -6.755-6.755h-34.889c-.666-1.844-1.419-3.646-2.244-5.409h37.133a12.178 12.178 0 0 1 12.164 12.164v123.776a12.178 12.178 0 0 1 -12.164 12.165h-191.932a12.178 12.178 0 0 1 -12.164-12.165zm82.3 15.165h51.658v19.158h-51.657zm-10.861 22.158h73.383v6.2h-73.383z"/><path d="m90.131 107.679a9.942 9.942 0 0 0 17.2 6.448l20.669-22.127 20.668 22.124a9.941 9.941 0 0 0 14.051.479 9.94 9.94 0 0 0 .479-14.052l-21.593-23.111 21.595-23.113a9.941 9.941 0 1 0 -14.529-13.573l-20.671 22.123-20.668-22.124a9.942 9.942 0 1 0 -14.532 13.574l21.595 23.113-21.595 23.114a9.876 9.876 0 0 0 -2.669 7.125zm4.863-5.077 22.549-24.138a1.5 1.5 0 0 0 0-2.048l-22.549-24.137a6.942 6.942 0 1 1 10.147-9.479l21.759 23.3a1.545 1.545 0 0 0 2.191 0l21.769-23.3a6.942 6.942 0 0 1 10.146 9.479l-22.549 24.137a1.5 1.5 0 0 0 0 2.048l22.549 24.136a6.942 6.942 0 0 1 -10.146 9.478l-21.76-23.296a1.5 1.5 0 0 0 -2.191 0l-21.765 23.3a6.942 6.942 0 0 1 -10.15-9.482z"/></g></svg>