<svg id="Layer_1" enable-background="new 0 0 510 510" height="512" viewBox="0 0 510 510" width="512" xmlns="http://www.w3.org/2000/svg"><g id="XMLID_2988_"><path id="XMLID_2932_" d="m210.25 510c-10 0-170 0-180 0 0-14.385 0-495.615 0-510h180l15 255z" fill="#fff5f5"/><path id="XMLID_2926_" d="m210.25 0h180v510h-180z" fill="#e4e4ff"/><g id="XMLID_2925_"><g><g id="XMLID_56_"><path d="m90.25 90h120v30h-120z" fill="#8e89fa"/></g></g></g><g id="XMLID_2915_"><path id="XMLID_2985_" d="m210.25 180c-14.518 0-105.25 0-120.25 0 0-10.492 0-19.508 0-30h120.25l15 15z" fill="#afd1fd"/></g><g id="XMLID_2914_"><path id="XMLID_2984_" d="m210.25 240c-14.518 0-105.25 0-120.25 0 0-10.492 0-19.508 0-30h120.25l15 15z" fill="#afd1fd"/></g><g id="XMLID_2990_"><path id="XMLID_3017_" d="m210.25 150h119.75v30h-119.75z" fill="#6dabfc"/></g><g id="XMLID_2964_"><path id="XMLID_2989_" d="m210.25 210h119.75v30h-119.75z" fill="#6dabfc"/></g><g id="XMLID_2870_"><path id="XMLID_2983_" d="m90 270h120.25v30h-120.25z" fill="#afd1fd"/></g><g id="XMLID_2835_"><path id="XMLID_2967_" d="m90 330h120.326v30h-120.326z" fill="#afd1fd"/></g><circle id="XMLID_2806_" cx="382.25" cy="412.03" fill="#ff5c5c" r="97.5"/><path id="XMLID_2994_" d="m422.69 392.804-21.213-21.213-19.227 19.226-19.228-19.226-21.212 21.213 19.227 19.226-19.227 19.227 21.212 21.213 19.228-19.227 19.227 19.227 21.213-21.213-19.227-19.227z" fill="#fff5f5"/></g></svg>