<?xml version="1.0" ?><!DOCTYPE svg  PUBLIC '-//W3C//DTD SVG 1.1//EN'  'http://www.w3.org/Graphics/SVG/1.1/DTD/svg11.dtd'><svg enable-background="new 0 0 141.732 141.732" height="141.732px" id="Livello_1" version="1.1" viewBox="0 0 141.732 141.732" width="141.732px" xml:space="preserve" xmlns="http://www.w3.org/2000/svg" xmlns:xlink="http://www.w3.org/1999/xlink"><g id="Livello_20"><path d="M114.944,118.188h-14.396v14.752c0,3.976,3.222,7.197,7.197,7.197c3.975,0,7.194-3.226,7.194-7.197L114.944,118.188   L114.944,118.188z M41.182,118.188H26.787v14.752c0,3.976,3.224,7.197,7.194,7.197c3.979,0,7.198-3.226,7.198-7.197L41.182,118.188   L41.182,118.188z M115.123,62.697c0,2.037-1.65,3.688-3.688,3.688H30.298h-0.002c-2.036,0-3.688-1.65-3.688-3.688V25.809   c0-2.033,1.655-3.683,3.696-3.683h0.001h81.125c0.001,0,0.003-0.002,0.004-0.002c2.037,0,3.688,1.647,3.688,3.685L115.123,62.697   L115.123,62.697z M100.371,11.064c0,2.037-1.651,3.688-3.688,3.688H96.68h-51.72c-1.987,0-3.604-1.649-3.604-3.688   s1.612-3.688,3.604-3.688h51.722C98.719,7.375,100.371,9.027,100.371,11.064 M26.787,88.514c0-3.881,3.224-7.025,7.194-7.025   c3.979,0,7.198,3.146,7.198,7.025s-3.222,7.021-7.198,7.021C30.01,95.537,26.787,92.393,26.787,88.514 M56.293,82.98   c0-1.896,1.507-3.438,3.39-3.504V79.47h0.119h0.001h21.95v0.01c0.059-0.004,0.117-0.01,0.178-0.01c1.938,0,3.51,1.569,3.51,3.51   c0,1.938-1.567,3.51-3.51,3.51c-0.061,0-0.119-0.006-0.178-0.009v0.009h-22.07v-0.006C57.799,86.422,56.293,84.879,56.293,82.98    M56.293,94.045c0-1.896,1.507-3.438,3.39-3.504v-0.006h22.07v0.01c0.059-0.004,0.117-0.01,0.178-0.01c1.938,0,3.51,1.57,3.51,3.51   c0,1.938-1.567,3.513-3.51,3.513c-0.061,0-0.119-0.006-0.178-0.011v0.011h-22.07v-0.006C57.799,97.486,56.293,95.943,56.293,94.045    M100.549,88.514c0-3.881,3.222-7.025,7.197-7.025c3.975,0,7.194,3.146,7.194,7.025s-3.223,7.021-7.194,7.021   C103.77,95.537,100.549,92.393,100.549,88.514 M122.5,7.377V7.375c0-4.071-3.304-7.375-7.377-7.375H26.609h-0.001   c-4.073,0-7.376,3.304-7.376,7.375v103.438c0,3.976,3.228,7.197,7.198,7.197c0.06,0,0.117-0.009,0.178-0.011v0.188h88.515   c4.07,0,7.377-3.303,7.377-7.377V7.377z"/></g><g id="Livello_1_1_"/></svg>