<svg width="800" height="600" xmlns="http://www.w3.org/2000/svg">
 <!-- Created with Method Draw - http://github.com/duopixel/Method-Draw/ -->
 <g>
  <title>background</title>
  <rect fill="#fff" id="canvas_background" height="602" width="802" y="-1" x="-1"/>
  <g display="none" overflow="visible" y="0" x="0" height="100%" width="100%" id="canvasGrid">
   <rect fill="url(#gridpattern)" stroke-width="0" y="0" x="0" height="100%" width="100%"/>
  </g>
 </g>
 <g>
  <title>Layer 1</title>
  <line stroke="#000" stroke-linecap="undefined" stroke-linejoin="undefined" id="svg_1" y2="180.05" x2="333.50001" y1="106.05" x1="105.5" stroke-width="1.5" fill="none"/>
  <path d="m330.5,179.05c2,-1 3.29291,-1.29289 4,-2c1.41422,-1.41422 4,-5 8,-9c4,-4 7.9585,-9.04875 15,-15c5.96515,-5.04155 11.96838,-9.05334 17,-12c6.95706,-4.07423 10.60641,-6.54901 16,-10c3.76703,-2.41028 7.76303,-4.38055 14,-8c3.86798,-2.24468 8.18204,-4.56503 11,-6c7.66565,-3.90354 14.58707,-9.73124 23,-14c9.60468,-4.87344 16.8176,-8.43861 26,-12c5.89658,-2.28698 16.69028,-7.01296 25,-9c8.8071,-2.10596 19,-2 31,-2c10,0 20.13947,-1.2104 34,1c12.21497,1.94798 23.21008,6.37261 33,10c9.23529,3.4219 15.21942,7.665 23,13c8.24744,5.65509 17.5379,15.55954 24,24c4.38367,5.72569 8.19409,12.88855 11,18c3.22803,5.88045 4.49622,8.90779 5,13c0.36658,2.97752 0,6 0,9c0,2 0.91553,5.14311 0,8c-2.62524,8.19196 -9.76306,11.38055 -16,15c-11.604,6.73405 -19.83185,10.44907 -30,14c-9.85657,3.44212 -18.99463,5.04947 -28,6c-9.99438,1.05493 -20,1 -38,1c-10,0 -20.99634,-0.04137 -32,-1c-11.99615,-1.0451 -24.01614,-1.35242 -37,-2c-20.0748,-1.00124 -37.99081,-3.06544 -52,-5c-14.99048,-2.07007 -29,-3 -43,-3c-8,0 -12,0 -16,0c-8,0 -14.01547,-0.4971 -22,0c-8.04669,0.50096 -15.96133,2.21771 -21,3c-8.94818,1.38927 -25.01672,3.85954 -34,5c-7.01477,0.89055 -14.81558,1.99245 -23,3c-3.97003,0.48874 -7.69344,0.4588 -9,1c-0.92387,0.38269 -2.07613,-0.38269 -3,0c-2.61313,1.0824 -2.69255,3.186 -4,5c-0.8269,1.14726 -2.3851,3.37201 -5,7c-1.65381,2.29454 -5.37642,4.08031 -7,8c-1.53073,3.69551 -1.2565,4.797 -2,6c-1.66251,2.68999 -1.83981,5.01291 -2,6c-0.50655,3.12144 -1.48625,3.82375 -2,6c-1.37851,5.83949 1.25497,11.88762 6,22.99998c2.11476,4.95255 4.1377,10.89288 8,16c5.18884,6.86118 10.73578,12.23541 17,19c6.7262,7.26349 16.80243,13.43289 23,16c5.84314,2.42029 13,4 20,4c7,0 16,0 27,0c13,0 22.09427,0.52017 29,-1c10.1962,-2.24451 18.09201,-5.73694 27,-9c10.11319,-3.70453 29.09317,-12.79663 38,-17c10.11096,-4.77161 19,-9 29,-13c10,-4 19.09201,-7.73694 28,-11c10.11319,-3.70453 23.01685,-5.39169 34,-6c9.0415,-0.50076 20,-1 28,-1c7,0 13.1181,1.3754 20,3c9.23303,2.17963 13.91827,6.11215 18,9c2.94336,2.08246 7.22021,5.79489 10,9c3.276,3.77728 4.92303,6.05276 7,9c2.37512,3.3703 5.8927,8.13492 12,24c1.48126,3.84784 2.06146,8.99149 3,16c1.07013,7.99094 2.01648,16.07419 1,23c-1.51605,10.32965 -9.45923,19.4577 -18,29c-8.48853,9.48392 -17.88861,20.83093 -40,33c-17.2569,9.49738 -36.26666,18.34247 -84,32c-29.61737,8.47415 -65.86478,14.79526 -93,19c-23.90152,3.70367 -51.01007,4.11432 -90,5c-22.01703,0.50012 -42,1 -55,1c-12,0 -27.03719,0.42816 -41,-1c-15.0542,-1.53979 -24.17697,-4.34518 -29,-6c-6.34511,-2.17706 -8.297,-4.61383 -11,-7c-1.67633,-1.47983 -3.80757,-5.13055 -12,-17c-9.77298,-14.15939 -22.39152,-28.78342 -30,-43c-8.44085,-15.77188 -16.78509,-37.72891 -23,-57c-5.73398,-17.77982 -11.21227,-44.04996 -13,-66c-1.38952,-17.06076 -4.46998,-36.00688 -4,-51.99998c0.50021,-17.02203 4.33011,-30.96219 6,-47c2.4941,-23.95369 1.40224,-40.01489 2,-52c0.50062,-10.0374 2.09584,-17.97923 4,-27c2.10625,-9.97816 4.8005,-19.05164 8,-31c1.8831,-7.03235 4.83468,-14.08555 8,-20c3.80424,-7.10829 10.09668,-14.88621 16,-20c11.53744,-9.99438 23.72903,-13.84322 35,-17c24.55035,-6.87607 41.96558,-8.31503 68,-11c21.97417,-2.26623 49.00302,-3.55418 82,-4c37.01013,-0.50005 59,-2 82,-2c17,0 33,0 48,0c12,0 24,0 42,0c11,0 23,0 35,0c15,0 27.99634,0.04136 39,1c11.99615,1.0451 26.81403,3.54894 32,5c5.85779,1.63903 11.11237,2.54705 16,4c5.16193,1.53449 8.6463,4.9164 18,8c8.75604,2.88656 15.93298,4.23318 26,7c7.95135,2.18536 16,5 21,7c5,2 8.65106,5.43283 16,11c5.74799,4.35438 12.23468,11.77416 18,18c6.26422,6.76459 10.72809,15.68809 16,29c4.65747,11.76044 9.31683,31.8899 13,43c3.28528,9.90993 5.05481,16.99333 6,25c1.06165,8.99294 3.49982,21.98027 4,41c0.36804,13.99516 1.43585,28.04829 3,43c1.47137,14.06535 2,23.99998 2,35.99998c0,12 0.46588,31.00775 0,45c-0.50031,15.02496 -3.28143,32.12161 -6,46c-2.37781,12.13861 -6.14026,23.39554 -12,35c-5.25659,10.41 -18.74115,24.241 -29,35c-14.63892,15.3526 -28.47296,25.47357 -43,39c-11.38513,10.60089 -25.37506,23.15817 -45,33c-6.80768,3.414 -24,7 -35,11c-11,4 -23.89166,7.60443 -39,10c-16.90604,2.68066 -46.0965,6.41528 -66,10c-19.10904,3.44159 -34.89795,5.49847 -68,7c-22.97638,1.04224 -43,0 -62,0c-26,0 -42.93912,-0.5271 -58,-2c-15.95511,-1.5603 -31.18855,-2.95966 -45,-6c-10.19618,-2.24451 -20.04659,-4.84888 -30,-8c-9.0444,-2.86334 -17.30507,-6.28674 -25,-10c-5.2515,-2.53412 -8.32367,-4.52014 -10,-6c-2.703,-2.38617 -8.72961,-11.22885 -13,-16c-4.71585,-5.26886 -7.70546,-8.34619 -10,-10c-1.814,-1.30746 -5.40215,-4.54358 -10,-9c-3.59032,-3.47989 -7.72651,-7.29361 -12,-11c-3.77727,-3.276 -7.35202,-6.66125 -16,-16c-6.26421,-6.76459 -12.64259,-13.4675 -20,-23c-6.60897,-8.56281 -12.68564,-18.22192 -17,-24c-4.67282,-6.25818 -9.3601,-11.75629 -14,-19c-4.3486,-6.78894 -9.29546,-19.88681 -13,-30c-3.26307,-8.90799 -3.84723,-13.04132 -5,-17c-2.6524,-9.10849 -4.43723,-16.9361 -7,-36c-1.20647,-8.97464 -1,-17 -1,-24c0,-13 0,-26 0,-39.99998c0,-12 0,-31 1,-42c1,-11 1.75779,-22.16901 4,-34c1.94405,-10.25772 4,-20 6,-30c2,-10 3,-21 5,-26l1,-4l0,-3l0,-1" id="svg_2" fill-opacity="null" stroke-opacity="null" stroke-width="1.5" stroke="#000" fill="none"/>
 </g>
</svg>