<svg id="Layer_1" enable-background="new 0 0 510 510" height="512" viewBox="0 0 510 510" width="512" xmlns="http://www.w3.org/2000/svg"><g><path d="m345 497.971 165-60.893v-359.072l-165 60.5-27.494 179.733z" fill="#ffc34d"/><path d="m345 138.509v359.46h-90l-15.079-159.137 14.746-195.905z" fill="#ff884d"/><path d="m255 141.366v356.603h-90l-21.66-221.157 21.66-138.303z" fill="#ffc34d"/><path d="m165 497.971-165-60.893v-359.072l165 60.5z" fill="#ffff80"/><path d="m169.72 180.57c.219-.032 22.161-3.026 45.464 4.875l9.632-28.412c-28.287-9.589-54.374-6.808-58.847-6.229-33.12 2.614-64.742 18.324-86.822 43.149-6.449 7.25-11.866 14.975-17.104 22.444-4.687 6.684-9.114 12.996-14.052 18.7-6.083 7.026-18.376 18.816-32.346 18.84h-15.645v30h15.669c19.192-.032 38.726-10.403 55.002-29.204 5.94-6.86 11.02-14.104 15.933-21.11 4.968-7.085 9.661-13.776 14.958-19.731 17.058-19.178 41.52-31.281 67.115-33.207z" fill="#283366"/><path d="m510 319.159v41.32c-8.67-13.68-21.69-19.33-23.78-20.17-27.31-8.37-56.59 7.05-71.65 17.03-11.19 7.41-21.58 15.94-32.58 24.97-12.35 10.14-25.12 20.63-39.27 29.52-26.51 16.66-56.72 26.87-87.72 29.94v-30.17c25.37-2.94 50.03-11.5 71.76-25.17 12.54-7.88 24.03-17.31 36.19-27.3 11.1-9.11 22.58-18.54 35.06-26.8 33.83-22.41 68.51-29.69 97.64-20.5l.55.18c.61.22 6.36 2.35 13.8 7.15z" fill="#0a0a33"/><path d="m270 259.419c0 1.25-.01 2.5 0 3.74.07 13.11-6.51 27.86-15 40.65-6.86 10.32-14.97 19.36-21.83 25.2-6 5.1-12.27 9.56-18.34 13.88-8.24 5.87-16.02 11.41-22.37 17.97-8.41 8.68-15.1 22.06-11.09 32.38 5.65 14.53 29.89 17.99 37.18 18.71 12.15 1.2 24.38 1.06 36.45-.35v30.17c-6.61.66-13.25.99-19.9.99-6.5 0-12.99-.32-19.48-.95-31.88-3.13-53.98-16.52-62.21-37.7-9.42-24.22 2.86-49 17.5-64.12 8.26-8.53 17.54-15.14 26.52-21.54 5.8-4.13 11.28-8.03 16.3-12.29 11.95-10.17 26.33-31.54 26.27-42.84-.01-1.33 0-2.67 0-4.01.07-18.31.13-32.78-37.31-56.09l15.86-25.47c16.33 10.17 28.23 20.16 36.45 30.73 3.21 4.13 5.86 8.34 8 12.68 7.1 14.4 7.04 27.63 7 38.26z" fill="#283366"/><path d="m349.64 106.669c0 78.87-94.64 147.22-94.64 147.22l-15.079-61.552 15.079-53.568c17.54 0 31.77-14.22 31.77-31.76 0-17.55-14.23-31.77-31.77-31.77l-15.079-33.674 15.079-29.536c52.27 0 94.64 42.37 94.64 94.64z" fill="#e62e2e"/><path d="m255 75.239v-63.21c-52.27 0-94.64 42.37-94.64 94.64 0 78.87 94.64 147.22 94.64 147.22v-115.12c-17.54 0-31.77-14.22-31.77-31.76 0-17.55 14.23-31.77 31.77-31.77z" fill="#f53"/></g></svg>