<?xml version="1.0" encoding="iso-8859-1"?>
<!-- Generator: Adobe Illustrator 19.0.0, SVG Export Plug-In . SVG Version: 6.00 Build 0)  -->
<svg version="1.1" id="Layer_1" xmlns="http://www.w3.org/2000/svg" xmlns:xlink="http://www.w3.org/1999/xlink" x="0px" y="0px"
	 viewBox="0 0 512 512" style="enable-background:new 0 0 512 512;" xml:space="preserve">
<path style="fill:#898890;" d="M334.573,356.242H177.397c-6.034,6.698-12.122,12.815-18.008,18.302
	c-16.545,15.414-29.736,24.089-30.29,24.452c-3.868,2.527-8.301,3.792-12.733,3.792h279.27c-4.433,0-8.865-1.264-12.733-3.792
	C380.925,397.703,358.225,382.599,334.573,356.242z"/>
<path style="fill:#FF6243;" d="M116.364,109.213c-0.05,0-0.098,0.003-0.149,0.003C52.12,109.298,0,161.469,0,225.59
	C0,328.308,96.098,394.001,103.336,398.8c0.014,0.009,0.029,0.019,0.04,0.028c0.104,0.068,0.191,0.127,0.254,0.168
	c0.5,0.327,1.01,0.631,1.528,0.915c0.189,0.104,0.383,0.194,0.576,0.292c0.405,0.208,0.813,0.41,1.232,0.594
	c0.251,0.112,0.506,0.216,0.76,0.318c0.4,0.16,0.804,0.306,1.212,0.444c0.236,0.079,0.473,0.164,0.709,0.237
	c0.613,0.185,1.235,0.346,1.866,0.479c0.197,0.042,0.397,0.07,0.594,0.107c0.5,0.093,1.005,0.171,1.517,0.231
	c0.214,0.025,0.428,0.05,0.644,0.068c0.642,0.057,1.291,0.093,1.946,0.098c0.05,0,0.098,0.008,0.149,0.008
	c4.433,0,8.865-1.264,12.733-3.792c0.554-0.361,13.745-9.038,30.29-24.452c5.888-5.486,11.976-11.604,18.008-18.302
	c28.253-31.361,55.332-75.737,55.332-130.652C232.727,161.42,180.527,109.213,116.364,109.213z M116.364,256.607
	c-0.05,0-0.098-0.008-0.149-0.008c-17.067-0.081-30.881-13.934-30.881-31.023s13.815-30.943,30.881-31.024
	c0.05,0,0.098-0.008,0.149-0.008c17.136,0,31.03,13.894,31.03,31.03C147.394,242.714,133.5,256.607,116.364,256.607z"/>
<path style="fill:#FF0C38;" d="M85.333,225.578c0-17.088,13.815-30.943,30.881-31.024v-85.336C52.12,109.298,0,161.469,0,225.59
	C0,328.308,96.098,394.001,103.336,398.8c0.014,0.009,0.029,0.019,0.04,0.028c0.104,0.068,0.191,0.127,0.254,0.168
	c0.5,0.327,1.01,0.631,1.528,0.915c0.189,0.104,0.383,0.194,0.576,0.292c0.405,0.208,0.813,0.41,1.232,0.594
	c0.251,0.112,0.506,0.216,0.76,0.318c0.4,0.16,0.804,0.306,1.212,0.444c0.236,0.079,0.473,0.164,0.709,0.237
	c0.613,0.185,1.235,0.346,1.866,0.479c0.197,0.042,0.397,0.07,0.594,0.107c0.5,0.093,1.005,0.171,1.517,0.231
	c0.214,0.025,0.428,0.05,0.644,0.068c0.642,0.057,1.291,0.093,1.946,0.098V256.599C99.148,256.518,85.333,242.665,85.333,225.578z"
	/>
<path style="fill:#FF6243;" d="M395.636,109.213c-0.002,0-0.002,0-0.003,0c-64.161,0-116.361,52.207-116.361,116.378
	c0,55.712,28.272,100.529,55.301,130.65c23.651,26.357,46.352,41.463,48.327,42.754c3.868,2.527,8.301,3.792,12.733,3.792h0.003
	c0.003,0,0.005,0,0.008,0c0.701,0,1.393-0.043,2.081-0.105c0.22-0.02,0.439-0.045,0.658-0.07c0.5-0.059,0.995-0.137,1.485-0.227
	c0.209-0.039,0.42-0.068,0.627-0.113c0.624-0.132,1.237-0.292,1.84-0.473c0.259-0.078,0.514-0.171,0.77-0.258
	c0.383-0.129,0.763-0.267,1.136-0.416c0.276-0.109,0.549-0.222,0.818-0.341c0.385-0.171,0.76-0.355,1.133-0.546
	c0.223-0.113,0.448-0.217,0.669-0.338c0.51-0.281,1.013-0.582,1.508-0.905c0.03-0.019,0.112-0.074,0.209-0.138
	c0.037-0.025,0.079-0.053,0.127-0.084c2.169-1.448,14.609-9.934,29.955-24.228C472.115,343.375,512,292.233,512,225.59
	C512,161.421,459.799,109.214,395.636,109.213z M395.636,256.607c-17.136,0-31.033-13.892-31.033-31.03s13.897-31.03,31.033-31.03
	c17.133,0,31.027,13.894,31.027,31.03C426.664,242.714,412.77,256.607,395.636,256.607z"/>
<path style="fill:#FF0C38;" d="M364.603,225.578c0-17.138,13.897-31.03,31.033-31.03v-85.333c-0.002,0-0.002,0-0.003,0
	c-64.161-0.002-116.361,52.205-116.361,116.376c0,55.712,28.272,100.529,55.301,130.65c23.651,26.357,46.352,41.463,48.327,42.754
	c3.868,2.527,8.301,3.792,12.733,3.792h0.003V256.605C378.5,256.607,364.603,242.714,364.603,225.578z"/>
<g>
</g>
<g>
</g>
<g>
</g>
<g>
</g>
<g>
</g>
<g>
</g>
<g>
</g>
<g>
</g>
<g>
</g>
<g>
</g>
<g>
</g>
<g>
</g>
<g>
</g>
<g>
</g>
<g>
</g>
</svg>
