<?xml version="1.0" encoding="iso-8859-1"?>
<!-- Generator: Adobe Illustrator 19.0.0, SVG Export Plug-In . SVG Version: 6.00 Build 0)  -->
<svg version="1.1" id="Layer_1" xmlns="http://www.w3.org/2000/svg" xmlns:xlink="http://www.w3.org/1999/xlink" x="0px" y="0px"
	 viewBox="0 0 512.004 512.004" style="enable-background:new 0 0 512.004 512.004;" xml:space="preserve">
<g>
	<path style="fill:#29ABE2;" d="M395.831,31.859c-6.624,0-11.994,5.37-11.994,11.994l0,0c0,6.624,5.37,11.994,11.994,11.994h27.985
		c8.831,0,15.992,7.159,15.992,15.992l0,0c0,8.832-7.159,15.992-15.992,15.992h-79.958v79.958h74.588
		c11.797,0,21.361-9.564,21.361-21.361v-42.605h39.979V31.859H395.831z"/>
	<rect x="359.647" y="271.646" style="fill:#29ABE2;" width="24.141" height="15.744"/>
	<rect x="63.66" y="240.158" style="fill:#29ABE2;" width="15.744" height="24.141"/>
</g>
<path style="fill:#BDCCD4;" d="M423.816,87.83h-39.979V55.847h39.979c8.832,0,15.992,7.159,15.992,15.992l0,0
	C439.808,80.67,432.648,87.83,423.816,87.83z"/>
<g>
	<circle style="fill:#ED1E79;" cx="343.861" cy="279.728" r="15.992"/>
	<rect x="335.506" y="56.475" style="fill:#ED1E79;" width="15.744" height="16.794"/>
</g>
<path d="M351.253,257.044v-73.568h-15.744v73.901c-9.053,3.392-15.514,12.131-15.514,22.352c0,13.159,10.705,23.864,23.864,23.864
	c13.158,0,23.863-10.705,23.863-23.864C367.721,269.151,360.801,260.165,351.253,257.044z M343.859,287.849
	c-4.478,0-8.12-3.642-8.12-8.12s3.643-8.12,8.12-8.12c4.477,0,8.119,3.642,8.119,8.12S348.336,287.849,343.859,287.849z"/>
<path d="M395.832,23.988c-10.954,0-19.866,8.912-19.866,19.866c0,0.04,0.005,0.079,0.006,0.12h-0.005l0.478,31.513l15.742-0.239
	l-0.181-11.907c1.238,0.242,2.516,0.378,3.826,0.378h27.985c4.478,0,8.119,3.642,8.119,8.12c0,4.478-3.642,8.12-8.119,8.12h-87.83
	v95.702h82.46c16.12,0,29.234-13.115,29.234-29.233v-34.732h39.979V23.988H395.832z M431.936,146.426
	c0,7.437-6.052,13.489-13.49,13.489H351.73V95.702h72.086c2.85,0,5.583-0.502,8.119-1.422v52.146H431.936z M471.915,95.95H447.68
	V71.839c0-13.159-10.705-23.864-23.863-23.864h-27.985c-2.269,0-4.115-1.844-4.121-4.112v-0.016c0.003-2.269,1.85-4.115,4.121-4.115
	h76.083L471.915,95.95L471.915,95.95z"/>
<circle style="fill:#ED1E79;" cx="72.004" cy="223.764" r="15.992"/>
<path style="fill:#BDCCD4;" d="M72.001,7.872c-35.328,0-63.967,28.639-63.967,63.967s63.967,127.932,63.967,127.932
	s63.967-92.605,63.967-127.932C135.967,36.511,107.329,7.872,72.001,7.872z M72.001,111.818c-22.079,0-39.979-17.899-39.979-39.979
	c0-22.079,17.9-39.979,39.979-39.979s39.979,17.9,39.979,39.979C111.979,93.918,94.081,111.818,72.001,111.818z"/>
<path d="M143.84,71.839C143.84,32.227,111.612,0,72,0S0.163,32.227,0.163,71.839c0,34.342,51.307,111.775,63.431,129.59
	c-9.021,3.408-15.456,12.13-15.456,22.33c0,13.159,10.705,23.864,23.863,23.864c13.159,0,23.864-10.705,23.864-23.864
	c0-10.204-6.439-18.93-15.467-22.334c4.755-7.04,17.644-26.438,30.396-48.421C132.722,115.203,143.84,87.895,143.84,71.839z
	 M72,15.744c30.932,0,56.095,25.164,56.095,56.095c0,24.059-35.989,83.457-56.096,113.858
	C51.893,155.298,15.907,95.909,15.907,71.839C15.907,40.908,41.07,15.744,72,15.744z M72,231.878c-4.478,0-8.119-3.642-8.119-8.12
	c0-4.478,3.642-8.12,8.119-8.12c4.478,0,8.12,3.643,8.12,8.12S76.478,231.878,72,231.878z"/>
<g>
	<path id="SVGCleanerId_0" d="M72,119.69c-26.386,0-47.851-21.466-47.851-47.851S45.614,23.988,72,23.988
		s47.851,21.466,47.851,47.851S98.386,119.69,72,119.69z M72,39.731c-17.704,0-32.107,14.404-32.107,32.107
		S54.297,103.946,72,103.946s32.107-14.404,32.107-32.107C104.107,54.135,89.704,39.731,72,39.731z"/>
</g>
<g>
	<path id="SVGCleanerId_0_1_" d="M72,119.69c-26.386,0-47.851-21.466-47.851-47.851S45.614,23.988,72,23.988
		s47.851,21.466,47.851,47.851S98.386,119.69,72,119.69z M72,39.731c-17.704,0-32.107,14.404-32.107,32.107
		S54.297,103.946,72,103.946s32.107-14.404,32.107-32.107C104.107,54.135,89.704,39.731,72,39.731z"/>
</g>
<circle style="fill:#29ABE2;" cx="72.004" cy="71.834" r="39.979"/>
<g>
	<path id="SVGCleanerId_0_2_" d="M72,119.69c-26.386,0-47.851-21.466-47.851-47.851S45.614,23.988,72,23.988
		s47.851,21.466,47.851,47.851S98.386,119.69,72,119.69z M72,39.731c-17.704,0-32.107,14.404-32.107,32.107
		S54.297,103.946,72,103.946s32.107-14.404,32.107-32.107C104.107,54.135,89.704,39.731,72,39.731z"/>
</g>
<circle style="fill:#FFFFFF;" cx="72.004" cy="71.834" r="15.992"/>
<rect x="63.66" y="127.851" style="fill:#ED1E79;" width="16.794" height="15.744"/>
<path d="M72,95.702c-13.158,0-23.863-10.705-23.863-23.864S58.843,47.975,72,47.975c13.159,0,23.864,10.705,23.864,23.864
	S85.159,95.702,72,95.702z M72,63.719c-4.478,0-8.119,3.642-8.119,8.12c0,4.478,3.642,8.12,8.119,8.12c4.478,0,8.12-3.642,8.12-8.12
	C80.121,67.361,76.478,63.719,72,63.719z"/>
<g>
	<rect x="63.66" y="278.994" style="fill:#ED1E79;" width="15.744" height="24.141"/>
	<rect x="63.66" y="319.928" style="fill:#ED1E79;" width="15.744" height="24.141"/>
	<rect x="63.66" y="360.862" style="fill:#ED1E79;" width="15.744" height="23.091"/>
	<rect x="63.66" y="399.697" style="fill:#ED1E79;" width="15.744" height="24.141"/>
	<rect x="63.66" y="439.582" style="fill:#ED1E79;" width="15.744" height="23.091"/>
	<rect x="167.57" y="278.994" style="fill:#ED1E79;" width="15.744" height="24.141"/>
	<rect x="167.57" y="319.928" style="fill:#ED1E79;" width="15.744" height="24.141"/>
	<rect x="167.57" y="360.862" style="fill:#ED1E79;" width="15.744" height="23.091"/>
	<rect x="167.57" y="399.697" style="fill:#ED1E79;" width="15.744" height="24.141"/>
	<rect x="167.57" y="439.582" style="fill:#ED1E79;" width="15.744" height="23.091"/>
</g>
<polygon style="fill:#29ABE2;" points="183.317,103.707 167.574,103.707 167.574,72.219 200.111,72.219 200.111,87.963 
	183.317,87.963 "/>
<g>
	<rect x="167.57" y="119.455" style="fill:#ED1E79;" width="15.744" height="24.141"/>
	<rect x="271.48" y="119.455" style="fill:#ED1E79;" width="15.744" height="24.141"/>
	<rect x="167.57" y="160.389" style="fill:#ED1E79;" width="15.744" height="23.091"/>
	<rect x="167.57" y="200.274" style="fill:#ED1E79;" width="15.744" height="24.141"/>
	<rect x="167.57" y="240.158" style="fill:#ED1E79;" width="15.744" height="24.141"/>
	<rect x="271.48" y="278.994" style="fill:#ED1E79;" width="15.744" height="24.141"/>
	<rect x="271.48" y="319.928" style="fill:#ED1E79;" width="15.744" height="24.141"/>
	<rect x="271.48" y="160.389" style="fill:#ED1E79;" width="15.744" height="23.091"/>
	<rect x="271.48" y="200.274" style="fill:#ED1E79;" width="15.744" height="24.141"/>
	<rect x="271.48" y="240.158" style="fill:#ED1E79;" width="15.744" height="24.141"/>
	<rect x="271.48" y="399.697" style="fill:#ED1E79;" width="15.744" height="24.141"/>
	<rect x="271.48" y="439.582" style="fill:#ED1E79;" width="15.744" height="23.091"/>
	<rect x="496.094" y="399.697" style="fill:#ED1E79;" width="15.744" height="24.141"/>
	<rect x="496.094" y="439.582" style="fill:#ED1E79;" width="15.744" height="23.091"/>
	<rect x="271.48" y="360.862" style="fill:#ED1E79;" width="15.744" height="23.091"/>
</g>
<g>
	<polygon style="fill:#29ABE2;" points="95.151,512 63.663,512 63.663,479.462 79.407,479.462 79.407,496.256 95.151,496.256 	"/>
	<polygon style="fill:#29ABE2;" points="183.317,512 151.83,512 151.83,496.256 167.574,496.256 167.574,479.462 183.317,479.462 	
		"/>
</g>
<rect x="111.942" y="496.26" style="fill:#ED1E79;" width="24.141" height="15.744"/>
<polygon style="fill:#29ABE2;" points="511.842,512 479.304,512 479.304,496.256 496.098,496.256 496.098,479.462 511.842,479.462 
	"/>
<g>
	<rect x="400.581" y="496.26" style="fill:#ED1E79;" width="23.091" height="15.744"/>
	<rect x="438.367" y="496.26" style="fill:#ED1E79;" width="25.19" height="15.744"/>
	<rect x="215.852" y="72.219" style="fill:#ED1E79;" width="25.19" height="15.744"/>
</g>
<g>
	<polygon style="fill:#29ABE2;" points="287.228,103.707 271.484,103.707 271.484,87.963 255.74,87.963 255.74,72.219 
		287.228,72.219 	"/>
	<polygon style="fill:#29ABE2;" points="304.021,512 271.484,512 271.484,479.462 287.228,479.462 287.228,496.256 304.021,496.256 
			"/>
</g>
<g>
	<rect x="319.762" y="496.26" style="fill:#ED1E79;" width="23.091" height="15.744"/>
	<rect x="359.647" y="496.26" style="fill:#ED1E79;" width="24.141" height="15.744"/>
	<rect x="438.367" y="271.646" style="fill:#ED1E79;" width="25.19" height="15.744"/>
	<rect x="400.581" y="271.646" style="fill:#ED1E79;" width="23.091" height="15.744"/>
</g>
<polygon style="fill:#29ABE2;" points="511.842,303.13 496.098,303.13 496.098,287.386 479.304,287.386 479.304,271.642 
	511.842,271.642 "/>
<g>
	<rect x="496.094" y="319.928" style="fill:#ED1E79;" width="15.744" height="24.141"/>
	<rect x="496.094" y="360.862" style="fill:#ED1E79;" width="15.744" height="23.091"/>
</g>
<g>
</g>
<g>
</g>
<g>
</g>
<g>
</g>
<g>
</g>
<g>
</g>
<g>
</g>
<g>
</g>
<g>
</g>
<g>
</g>
<g>
</g>
<g>
</g>
<g>
</g>
<g>
</g>
<g>
</g>
</svg>
