<svg id="Capa_1" enable-background="new 0 0 511.924 511.924" height="512" viewBox="0 0 511.924 511.924" width="512" xmlns="http://www.w3.org/2000/svg"><g><g><g><ellipse cx="113.695" cy="470.722" fill="#d0cee7" rx="86.711" ry="33.444"/><g><path d="m220.997 289.461c-.765 34.381-17.782 64.755-43.678 83.738-21.541 15.791-34.01 41.117-34.01 67.826 0 16.288-13.329 30.007-29.614 29.697-15.78-.301-28.471-13.179-28.471-29.031v-.66c0-26.791-12.626-52.079-34.2-67.963-26.399-19.438-43.527-50.738-43.527-86.028 0-59.48 48.634-107.6 108.294-106.765 59.024.827 106.519 50.17 105.206 109.186z" fill="#dd636e"/><circle cx="114.265" cy="287.035" fill="#f6f9f9" r="56.553"/><path d="m131.531 340.894c-5.442 1.747-11.249 2.691-17.269 2.691-31.232 0-56.551-25.319-56.551-56.551 0-31.244 25.319-56.563 56.551-56.563 6.02 0 11.827.944 17.269 2.691-22.781 7.295-39.282 28.647-39.282 53.872 0 25.213 16.501 46.566 39.282 53.86z" fill="#dddaec"/></g></g><g><ellipse cx="418.322" cy="240.767" fill="#d0cee7" rx="69.561" ry="26.829"/><g><path d="m504.402 95.357c-.614 27.581-14.265 51.947-35.039 67.176-17.28 12.668-27.284 32.985-27.284 54.411 0 13.066-10.693 24.072-23.757 23.823-12.659-.242-22.84-10.573-22.84-23.29v-.53c0-21.492-10.128-41.778-27.436-54.521-21.177-15.593-34.918-40.701-34.918-69.012 0-47.716 39.015-86.319 86.875-85.648 47.351.663 85.453 40.247 84.399 87.591z" fill="#b1e4f9"/><circle cx="418.78" cy="93.41" fill="#f6f9f9" r="45.368"/><path d="m432.631 136.617c-4.365 1.401-9.024 2.159-13.853 2.159-25.055 0-45.366-20.311-45.366-45.366 0-25.065 20.311-45.376 45.366-45.376 4.829 0 9.488.758 13.853 2.159-18.275 5.852-31.513 22.981-31.513 43.217 0 20.226 13.238 37.356 31.513 43.207z" fill="#dddaec"/></g></g></g><g><path d="m115.895 172.772c-30.801-.412-59.91 11.253-81.854 32.895-21.952 21.648-34.041 50.547-34.041 81.375 0 31.004 12.201 60.009 34.356 81.672 2.962 2.896 7.711 2.842 10.605-.119 2.896-2.962 2.843-7.71-.119-10.606-19.243-18.817-29.842-44.014-29.842-70.947 0-26.781 10.503-51.888 29.573-70.695 19.063-18.801 44.313-28.949 71.111-28.576 26.502.373 51.323 11.182 69.893 30.436 18.597 19.284 28.514 44.53 27.925 71.086-.696 31.058-15.501 59.437-40.615 77.859-23.217 17.018-37.077 44.633-37.077 73.869 0 12.038-9.88 22.208-21.632 22.208-.001 0-.003 0-.004 0-.129-.004-.258-.007-.387-.008-11.621-.245-21.067-9.894-21.067-21.53v-.66c0-23.646-8.884-46.08-25.016-63.168-2.845-3.013-7.591-3.148-10.603-.305s-3.148 7.59-.306 10.602c11.595 12.282 18.697 27.878 20.47 44.587-35.836 6.091-57.786 20.37-57.786 37.979 0 12.251 10.725 23.134 30.198 30.644 17.216 6.64 39.949 10.296 64.012 10.296s46.798-3.657 64.018-10.296c15.396-5.937 25.317-13.982 28.802-23.144h6.401c4.143 0 7.5-3.358 7.5-7.5s-3.357-7.5-7.5-7.5h-6.41c-5.288-13.907-25.326-24.996-55.261-30.281 2.24-21.407 13.287-41.065 30.517-53.696 28.904-21.201 45.941-53.866 46.742-89.621.679-30.587-10.729-59.649-32.124-81.833-21.366-22.156-49.947-34.593-80.479-35.023zm77.015 297.954c0 10.577-30.86 25.94-79.22 25.94-48.354 0-79.21-15.363-79.21-25.94 0-7.749 16.209-17.914 43.771-22.913 2.908 16.92 17.624 30.072 35.297 30.407.048.001.15.003.198.003.161.005.322.008.483.008 17.823 0 32.702-13.038 35.925-30.228 26.925 5.066 42.756 15.122 42.756 22.723z"/><path d="m114.265 351.088c35.318 0 64.053-28.734 64.053-64.053s-28.734-64.053-64.053-64.053-64.054 28.734-64.054 64.053 28.734 64.053 64.054 64.053zm0-113.106c27.048 0 49.053 22.005 49.053 49.053s-22.005 49.053-49.053 49.053-49.054-22.005-49.054-49.053 22.006-49.053 49.054-49.053z"/><path d="m485.717 28.813c-17.417-18.06-40.717-28.198-65.608-28.547-25.17-.326-48.839 9.17-66.729 26.812-17.896 17.647-27.751 41.206-27.751 66.336 0 29.489 14.195 57.545 37.971 75.052 13.156 9.687 21.727 24.488 23.851 40.627-22.889 4.124-38.668 12.507-44.102 23.177h-7.089c-4.143 0-7.5 3.358-7.5 7.5s3.357 7.5 7.5 7.5h6.223c2.936 7.771 11.172 14.54 23.953 19.467 13.976 5.388 32.402 8.354 51.886 8.354 9.636 0 19.016-.722 27.879-2.145 4.089-.657 6.872-4.504 6.216-8.594-.656-4.089-4.493-6.873-8.595-6.216-8.078 1.297-16.658 1.955-25.5 1.955-40.155 0-62.061-12.763-62.061-19.32 0-2.025 2.412-5.476 9.184-9.088 5.933-3.165 14.026-5.778 23.28-7.564 3.029 13.538 15.081 23.872 29.456 24.146.194.004.389.006.583.006 7.971 0 15.526-3.117 21.333-8.814 4.251-4.17 7.216-9.483 8.598-15.197 21.57 4.256 31.696 12.053 31.696 16.511 0 2.139-2.635 5.765-10.029 9.524-3.692 1.877-5.163 6.393-3.286 10.085 1.324 2.603 3.958 4.102 6.691 4.102 1.144 0 2.305-.262 3.394-.816 15.067-7.662 18.23-16.68 18.23-22.896 0-14.47-17.177-26.263-45.309-31.513 2.068-16.232 10.6-31.061 23.717-40.677 23.565-17.275 37.453-43.904 38.103-73.058.553-24.934-8.746-48.626-26.185-66.709zm-20.788 127.671c-19.004 13.932-30.35 36.534-30.35 60.46 0 4.393-1.818 8.696-4.988 11.807-3.05 2.993-7.04 4.6-11.125 4.518-8.538-.163-15.483-7.247-15.483-15.791v-.53c0-23.865-11.397-46.504-30.488-60.561-19.953-14.691-31.865-38.232-31.865-62.973 0-21.084 8.269-40.85 23.283-55.656 14.742-14.537 34.184-22.501 54.858-22.501.375 0 .752.003 1.128.008 20.862.292 40.402 8.801 55.021 23.96 14.643 15.183 22.45 35.058 21.985 55.964-.546 24.457-12.2 46.797-31.976 61.295z"/><path d="m418.779 40.542c-29.151 0-52.867 23.717-52.867 52.868s23.716 52.868 52.867 52.868 52.868-23.716 52.868-52.868-23.716-52.868-52.868-52.868zm0 90.736c-20.88 0-37.867-16.987-37.867-37.868s16.987-37.868 37.867-37.868c20.881 0 37.868 16.988 37.868 37.868s-16.987 37.868-37.868 37.868z"/><path d="m433.218 375.413c-3.955 1.23-6.163 5.435-4.933 9.39 1.805 5.8 2.72 11.852 2.72 17.988 0 1.595-.062 3.204-.187 4.779-.323 4.129 2.763 7.739 6.892 8.063.199.016.397.023.594.023 3.877 0 7.161-2.984 7.47-6.915.153-1.964.231-3.967.231-5.952 0-7.649-1.143-15.201-3.397-22.445-1.231-3.953-5.43-6.163-9.39-4.931z"/><path d="m414.397 361.178c1.475 1.552 3.455 2.335 5.439 2.335 1.854 0 3.713-.684 5.164-2.062 3.003-2.852 3.126-7.6.273-10.603-6.662-7.014-14.48-12.611-23.238-16.636-3.763-1.729-8.218-.08-9.946 3.683-1.73 3.764-.081 8.217 3.683 9.947 7.017 3.225 13.284 7.712 18.625 13.336z"/><path d="m382.337 462.082c-3.847.759-7.806 1.144-11.767 1.144h-12.598c-4.143 0-7.5 3.358-7.5 7.5s3.357 7.5 7.5 7.5h12.598c4.934 0 9.868-.48 14.669-1.427 4.064-.802 6.709-4.746 5.907-8.81s-4.75-6.708-8.809-5.907z"/><path d="m281.93 258.938c1.746 0 3.501-.606 4.922-1.843 5.531-4.815 12.255-8.012 19.442-9.245 4.083-.7 6.825-4.578 6.124-8.66-.699-4.083-4.582-6.826-8.659-6.124-9.898 1.698-19.151 6.095-26.757 12.716-3.124 2.72-3.452 7.457-.732 10.581 1.483 1.703 3.566 2.575 5.66 2.575z"/><path d="m268.345 310.818c.838 0 1.69-.142 2.524-.439 3.9-1.394 5.932-5.686 4.538-9.586-1.542-4.313-2.323-8.849-2.323-13.479 0-2.703.27-5.401.801-8.02.824-4.059-1.798-8.018-5.857-8.842-4.06-.822-8.018 1.798-8.842 5.857-.731 3.599-1.102 7.301-1.102 11.004 0 6.356 1.076 12.589 3.198 18.527 1.096 3.067 3.983 4.978 7.063 4.978z"/><path d="m376.219 334.855c0-4.142-3.357-7.5-7.5-7.5h-25.904c-4.143 0-7.5 3.358-7.5 7.5s3.357 7.5 7.5 7.5h25.904c4.142 0 7.5-3.358 7.5-7.5z"/><path d="m432.812 431.071c-3.559-2.119-8.161-.956-10.282 2.604-3.961 6.646-9.087 12.405-15.236 17.118-3.287 2.52-3.91 7.227-1.391 10.515 1.478 1.927 3.705 2.938 5.959 2.938 1.591 0 3.195-.505 4.557-1.548 7.666-5.875 14.058-13.057 18.996-21.344 2.121-3.559.955-8.162-2.603-10.283z"/><path d="m326.888 463.226h-25.903c-4.143 0-7.5 3.358-7.5 7.5s3.357 7.5 7.5 7.5h25.903c4.143 0 7.5-3.358 7.5-7.5s-3.358-7.5-7.5-7.5z"/><path d="m269.899 463.226h-25.904c-4.143 0-7.5 3.358-7.5 7.5s3.357 7.5 7.5 7.5h25.904c4.143 0 7.5-3.358 7.5-7.5s-3.357-7.5-7.5-7.5z"/><path d="m311.734 342.335c4.042 0 7.376-3.217 7.493-7.284.119-4.141-3.141-7.594-7.281-7.713-7.323-.211-14.434-2.421-20.562-6.392-3.475-2.252-8.12-1.26-10.372 2.216-2.253 3.476-1.261 8.12 2.216 10.373 8.435 5.465 18.215 8.507 28.286 8.797.074.002.147.003.22.003z"/></g></g></svg>