<?xml version="1.0" encoding="iso-8859-1"?>
<!-- Generator: Adobe Illustrator 19.0.0, SVG Export Plug-In . SVG Version: 6.00 Build 0)  -->
<svg version="1.1" id="Layer_1" xmlns="http://www.w3.org/2000/svg" xmlns:xlink="http://www.w3.org/1999/xlink" x="0px" y="0px"
	 viewBox="0 0 512 512" style="enable-background:new 0 0 512 512;" xml:space="preserve">
<g>
	<path style="fill:#FFFFFF;" d="M396.75,54.484c-17.523,0-31.782,14.259-31.782,31.782s14.259,31.782,31.782,31.782
		s31.782-14.259,31.782-31.782S414.273,54.484,396.75,54.484z"/>
	<path style="fill:#FFFFFF;" d="M115.25,298.259c-17.523,0-31.782,14.259-31.782,31.782c0,17.523,14.259,31.782,31.782,31.782
		s31.782-14.259,31.782-31.782C147.033,312.519,132.773,298.259,115.25,298.259z"/>
</g>
<path style="fill:#D0E8FF;" d="M115.25,261.937c-47.567,0-86.266,38.699-86.266,86.266c0,49.504,66.633,130.272,86.266,130.272
	s86.266-80.768,86.266-130.272C201.516,300.636,162.817,261.937,115.25,261.937z M115.25,379.985
	c-27.539,0-49.943-22.404-49.943-49.943c0-27.539,22.404-49.943,49.943-49.943s49.943,22.404,49.943,49.943
	C165.194,357.581,142.789,379.985,115.25,379.985z"/>
<path style="fill:#5CB0FF;" d="M396.75,18.161c-47.567,0-86.266,38.699-86.266,86.266c0,49.504,66.633,130.272,86.266,130.272
	s86.266-80.768,86.266-130.272C483.016,56.86,444.316,18.161,396.75,18.161z M396.75,136.209c-27.539,0-49.943-22.404-49.943-49.943
	s22.404-49.943,49.943-49.943c27.539,0,49.943,22.404,49.943,49.943S424.289,136.209,396.75,136.209z"/>
<g>
	<path style="fill:#1C71DA;" d="M396.75,0c-57.583,0-104.427,46.844-104.427,104.427c0,47.256,65.56,148.434,104.427,148.434
		s104.427-101.177,104.427-148.434C501.177,46.844,454.333,0,396.75,0z M396.75,234.7c-19.633,0-86.266-80.768-86.266-130.272
		c0-47.567,38.699-86.266,86.266-86.266s86.266,38.699,86.266,86.266C483.016,153.932,416.383,234.7,396.75,234.7z"/>
	<path style="fill:#1C71DA;" d="M115.25,243.776c-57.583,0-104.427,46.844-104.427,104.427c0,47.257,65.56,148.434,104.427,148.434
		s104.427-101.177,104.427-148.434C219.678,290.62,172.833,243.776,115.25,243.776z M115.25,478.475
		c-19.633,0-86.266-80.768-86.266-130.272c0-47.567,38.699-86.266,86.266-86.266s86.266,38.699,86.266,86.266
		C201.516,397.707,134.884,478.475,115.25,478.475z"/>
	<path style="fill:#1C71DA;" d="M396.75,36.322c-27.539,0-49.943,22.404-49.943,49.943s22.404,49.943,49.943,49.943
		c27.539,0,49.943-22.404,49.943-49.943S424.289,36.322,396.75,36.322z M396.75,118.048c-17.523,0-31.782-14.259-31.782-31.782
		s14.259-31.782,31.782-31.782s31.782,14.259,31.782,31.782S414.273,118.048,396.75,118.048z"/>
	<path style="fill:#1C71DA;" d="M115.25,280.098c-27.539,0-49.943,22.404-49.943,49.943c0,27.539,22.404,49.943,49.943,49.943
		s49.943-22.404,49.943-49.943C165.194,302.503,142.789,280.098,115.25,280.098z M115.25,361.824
		c-17.523,0-31.782-14.259-31.782-31.782c0-17.523,14.259-31.782,31.782-31.782s31.782,14.259,31.782,31.782
		C147.033,347.564,132.773,361.824,115.25,361.824z"/>
	<path style="fill:#1C71DA;" d="M365.788,389.983c-2.962-3.037-6.106-6.128-9.347-9.307c-5.219-5.13-10.699-10.504-16.028-16.312
		c-3.392-3.689-9.138-3.946-12.832-0.55c-3.694,3.392-3.942,9.138-0.55,12.832c5.6,6.101,11.235,11.635,16.685,16.986
		c3.144,3.086,6.194,6.083,9.072,9.032c1.778,1.827,4.141,2.74,6.5,2.74c2.288,0,4.576-0.86,6.341-2.58
		C369.219,399.321,369.291,393.571,365.788,389.983z"/>
	<path style="fill:#1C71DA;" d="M337.322,474.755c-8.908,4.775-19.629,8.717-31.871,11.719c-4.868,1.193-7.848,6.11-6.655,10.983
		c1.015,4.146,4.726,6.917,8.81,6.917c0.718,0,1.445-0.084,2.173-0.262c13.719-3.365,25.872-7.857,36.119-13.351
		c4.421-2.368,6.083-7.875,3.716-12.291C347.245,474.046,341.734,472.379,337.322,474.755z"/>
	<path style="fill:#1C71DA;" d="M377.156,417.274c-4.877,1.179-7.87,6.088-6.695,10.961c0.408,1.676,0.603,3.29,0.603,4.939
		c0,6.278-2.944,13.098-9.001,20.857c-3.086,3.951-2.385,9.657,1.57,12.743c1.658,1.295,3.627,1.924,5.582,1.924
		c2.7,0,5.369-1.197,7.161-3.494c8.646-11.072,12.85-21.549,12.85-32.031c0-3.064-0.372-6.159-1.108-9.205
		C386.942,419.092,382.003,416.121,377.156,417.274z"/>
	<path style="fill:#1C71DA;" d="M303.696,280.014c1.383,0.754,2.878,1.113,4.35,1.113c3.215,0,6.327-1.707,7.977-4.722
		c6.021-11.014,15.142-18.689,21.735-23.189c4.141-2.824,5.205-8.478,2.377-12.619c-2.815-4.146-8.478-5.205-12.619-2.377
		c-8.234,5.622-19.673,15.297-27.428,29.468C297.679,272.086,299.297,277.606,303.696,280.014z"/>
	<path style="fill:#1C71DA;" d="M270.916,492.163c-11.058,1.073-22.981,1.636-35.436,1.676c-5.015,0.013-9.067,4.092-9.054,9.107
		c0.013,5.006,4.079,9.054,9.081,9.054c0.009,0,0.018,0,0.027,0c13.022-0.04,25.517-0.634,37.138-1.765
		c4.993-0.483,8.646-4.922,8.158-9.914C280.342,495.324,275.926,491.648,270.916,492.163z"/>
	<path style="fill:#1C71DA;" d="M199.827,492.615c-20.87-1.45-35.205-3.702-35.347-3.729c-4.957-0.745-9.604,2.589-10.393,7.542
		c-0.789,4.953,2.585,9.608,7.538,10.398c0.612,0.093,15.208,2.399,36.943,3.906c0.213,0.013,0.426,0.022,0.638,0.022
		c4.726,0,8.717-3.662,9.05-8.451C208.602,497.297,204.828,492.961,199.827,492.615z"/>
	<path style="fill:#1C71DA;" d="M291.923,307.943c0.842,8.89,3.299,18.135,7.303,27.486c1.521,3.565,3.206,6.992,5.019,10.296
		c1.649,3.011,4.758,4.713,7.968,4.713c1.477,0,2.975-0.359,4.358-1.122c4.398-2.412,6.008-7.932,3.591-12.326
		c-1.53-2.789-2.948-5.684-4.239-8.704c-3.263-7.622-5.254-15.044-5.919-22.054c-0.474-4.997-4.899-8.642-9.896-8.185
		C295.111,298.521,291.449,302.95,291.923,307.943z"/>
</g>
<g>
	<path style="fill:#FF5D5D;" d="M411.539,342.794c-2.324,0-4.648-0.887-6.421-2.659c-3.546-3.547-3.546-9.296,0-12.843
		l32.105-32.105c3.547-3.545,9.296-3.545,12.843,0c3.546,3.547,3.546,9.296,0,12.843l-32.105,32.105
		C416.187,341.907,413.863,342.794,411.539,342.794z"/>
	<path style="fill:#FF5D5D;" d="M443.644,342.79c-2.324,0-4.648-0.887-6.421-2.659l-32.105-32.106
		c-3.546-3.547-3.546-9.297,0-12.843c3.549-3.545,9.298-3.543,12.843,0l32.105,32.106c3.546,3.547,3.546,9.297,0,12.843
		C448.292,341.903,445.967,342.79,443.644,342.79z"/>
</g>
<path style="fill:#00D40B;" d="M252.628,451.761c-17.525,0-31.782-14.257-31.782-31.782c0-17.525,14.257-31.782,31.782-31.782
	s31.782,14.257,31.782,31.782C284.41,437.504,270.153,451.761,252.628,451.761z M252.628,406.358
	c-7.511,0-13.621,6.11-13.621,13.621s6.11,13.621,13.621,13.621s13.621-6.11,13.621-13.621S260.139,406.358,252.628,406.358z"/>
<path style="fill:#FFC504;" d="M155.724,148.98c-2.323,0-4.648-0.887-6.42-2.659l-25.685-25.683c-1.704-1.704-2.66-4.013-2.66-6.421
	s0.957-4.718,2.66-6.421l25.685-25.683c3.547-3.545,9.297-3.543,12.842,0l25.683,25.683c3.546,3.547,3.546,9.296,0,12.843
	l-25.683,25.683C160.372,148.093,158.048,148.98,155.724,148.98z M142.881,114.216l12.843,12.842l12.842-12.842l-12.842-12.842
	L142.881,114.216z"/>
<g>
</g>
<g>
</g>
<g>
</g>
<g>
</g>
<g>
</g>
<g>
</g>
<g>
</g>
<g>
</g>
<g>
</g>
<g>
</g>
<g>
</g>
<g>
</g>
<g>
</g>
<g>
</g>
<g>
</g>
</svg>
