<?xml version="1.0" encoding="iso-8859-1"?>
<!-- Generator: Adobe Illustrator 16.0.0, SVG Export Plug-In . SVG Version: 6.00 Build 0)  -->
<!DOCTYPE svg PUBLIC "-//W3C//DTD SVG 1.1//EN" "http://www.w3.org/Graphics/SVG/1.1/DTD/svg11.dtd">
<svg version="1.1" id="Capa_1" xmlns="http://www.w3.org/2000/svg" xmlns:xlink="http://www.w3.org/1999/xlink" x="0px" y="0px"
	 width="953px" height="953px" viewBox="0 0 953 953" style="enable-background:new 0 0 953 953;" xml:space="preserve">
<g>
	<path d="M927.9,236.95h-22c-13.8,0-25,11.2-25,25v30.9h-30.7v-117.2c0-79.8-64.9-144.7-144.7-144.7H246.8
		c-79.9,0-144.7,64.8-144.7,144.7v117.2H72v-30.9c0-13.8-11.2-25-25-25H25c-13.8,0-25,11.2-25,25v103c0,13.8,11.2,25,25,25h22
		c13.8,0,25-11.2,25-25v-3.7h30.2V754.05c0,13.801,11.2,25,25,25h22.1v118c0,13.801,11.2,25,25,25h87.9c13.8,0,25-11.199,25-25v-118
		h377.9v118c0,13.801,11.199,25,25,25H778c13.8,0,25-11.199,25-25l0.2-118.1h22.1c13.801,0,25-11.199,25-25v-392.8H881v3.7
		c0,13.8,11.2,25,25,25h22c13.8,0,25-11.2,25-25v-103C952.9,248.15,941.7,236.95,927.9,236.95z M711.101,97.15
		c25,0,44.899,20,44.899,44.7c0,24.8-20,44.9-44.899,44.9c-24.801,0-44.7-20.1-44.7-44.9C666.4,117.05,686.3,97.15,711.101,97.15z
		 M343.2,129.25c0-13.8,11.2-25,25-25h216c13.8,0,25,11.2,25,25v25c0,13.8-11.2,25-25,25h-216c-13.8,0-25-11.2-25-25V129.25z
		 M241.1,97.15c24.8,0,44.9,20,44.9,44.7c0,24.8-20.1,44.9-44.9,44.9c-24.8,0-44.9-20.1-44.9-44.9
		C196.2,117.05,216.4,97.15,241.1,97.15z M241.1,614.45c-24.8,0-44.9-20.1-44.9-44.699c0-25,20.1-44.9,44.9-44.9
		c24.8,0,44.9,20,44.9,44.9C286,594.251,265.9,614.45,241.1,614.45z M626.9,679.751c0,13.799-11.2,25-25,25H350.3
		c-13.8,0-25-11.201-25-25l0.101-101.9c0-13.801,11.2-25,25-25h251.5c13.8,0,25,11.199,25,25V679.751z M711.101,614.45
		c-24.801,0-44.7-20.1-44.7-44.699c0-25,20-44.9,44.7-44.9c25,0,44.899,20,44.899,44.9C756,594.251,736,614.45,711.101,614.45z
		 M777.7,444.35c0,13.8-11.2,25-25,25H199.4c-13.8,0-25-11.2-25-25v-187.7c0-13.8,11.2-25,25-25h553.3c13.8,0,25,11.2,25,25V444.35z
		"/>
</g>
<g>
</g>
<g>
</g>
<g>
</g>
<g>
</g>
<g>
</g>
<g>
</g>
<g>
</g>
<g>
</g>
<g>
</g>
<g>
</g>
<g>
</g>
<g>
</g>
<g>
</g>
<g>
</g>
<g>
</g>
</svg>
