<svg id="Layer_3" enable-background="new 0 0 64 64" height="512" viewBox="0 0 64 64" width="512" xmlns="http://www.w3.org/2000/svg"><g><g><path d="m36 2h24v44h-24z" fill="#c1c8d1"/></g><g><path d="m36 44.069c9.149-7.334 15-18.525 15-31.069 0-3.817-.553-7.504-1.564-11h-13.436z" fill="#e6e9ed"/></g><g><path d="m40 36h6v6h-6z" fill="#7fcdee"/></g><g><path d="m43.628 36h-3.628v4.376c1.308-1.373 2.526-2.831 3.628-4.376z" fill="#b2e1f5"/></g><g><path d="m12 24h24v34h-24z" fill="#acb3bc"/></g><g><path d="m12 52.963c9.082-.327 17.4-3.603 24-8.893v-20.07h-24z" fill="#e6e9ed"/></g><g><path d="m50 36h6v6h-6z" fill="#7fcdee"/></g><g><path d="m50 26h6v6h-6z" fill="#7fcdee"/></g><g><path d="m50 16h6v6h-6z" fill="#7fcdee"/></g><g><path d="m50 6h6v6h-6z" fill="#7fcdee"/></g><g><path d="m40 6h6v6h-6z" fill="#b2e1f5"/></g><g><path d="m40 16h6v6h-6z" fill="#b2e1f5"/></g><g><path d="m40 26h6v6h-6z" fill="#b2e1f5"/></g><g><path d="m26 40h6v6h-6z" fill="#b2e1f5"/></g><g><path d="m16 40h6v6h-6z" fill="#b2e1f5"/></g><g><path d="m16 30h6v6h-6z" fill="#b2e1f5"/></g><g><path d="m26 30h6v6h-6z" fill="#b2e1f5"/></g><g><path d="m36 46h24v12h-24z" fill="#758190"/></g><g><path d="m44 58v-4c0-2.209 1.791-4 4-4 2.209 0 4 1.791 4 4v4z" fill="#c1c8d1"/></g><g><path d="m20 58v-4c0-2.209 1.791-4 4-4 2.209 0 4 1.791 4 4v4z" fill="#758190"/></g><g><path d="m2 58h60v4h-60z" fill="#758190"/></g><g><circle cx="14" cy="14" fill="#f9d18b" r="12"/></g><g><path d="m24.382 20c-.93 1.605-2.213 2.977-3.754 4h15.372v-4z" fill="#758190"/></g><g><path d="m2 14c0 3.531 1.534 6.696 3.962 8.892 9.017-.951 16.038-8.372 16.038-17.392 0-.151-.019-.297-.023-.447-2.122-1.893-4.91-3.053-7.977-3.053-6.627 0-12 5.373-12 12z" fill="#fbe3b9"/></g><g><path d="m62 63h-60c-.553 0-1-.448-1-1v-4c0-.552.447-1 1-1h60c.553 0 1 .448 1 1v4c0 .552-.447 1-1 1zm-59-2h58v-2h-58z"/></g><g><path d="m61 58h-2v-55h-22v55h-2v-56c0-.552.447-1 1-1h24c.553 0 1 .448 1 1z"/></g><g><path d="m46 13h-6c-.553 0-1-.448-1-1v-6c0-.552.447-1 1-1h6c.553 0 1 .448 1 1v6c0 .552-.447 1-1 1zm-5-2h4v-4h-4z"/></g><g><path d="m56 13h-6c-.553 0-1-.448-1-1v-6c0-.552.447-1 1-1h6c.553 0 1 .448 1 1v6c0 .552-.447 1-1 1zm-5-2h4v-4h-4z"/></g><g><path d="m46 23h-6c-.553 0-1-.448-1-1v-6c0-.552.447-1 1-1h6c.553 0 1 .448 1 1v6c0 .552-.447 1-1 1zm-5-2h4v-4h-4z"/></g><g><path d="m56 23h-6c-.553 0-1-.448-1-1v-6c0-.552.447-1 1-1h6c.553 0 1 .448 1 1v6c0 .552-.447 1-1 1zm-5-2h4v-4h-4z"/></g><g><path d="m46 33h-6c-.553 0-1-.448-1-1v-6c0-.552.447-1 1-1h6c.553 0 1 .448 1 1v6c0 .552-.447 1-1 1zm-5-2h4v-4h-4z"/></g><g><path d="m56 33h-6c-.553 0-1-.448-1-1v-6c0-.552.447-1 1-1h6c.553 0 1 .448 1 1v6c0 .552-.447 1-1 1zm-5-2h4v-4h-4z"/></g><g><path d="m22 37h-6c-.553 0-1-.448-1-1v-6c0-.552.447-1 1-1h6c.553 0 1 .448 1 1v6c0 .552-.447 1-1 1zm-5-2h4v-4h-4z"/></g><g><path d="m32 37h-6c-.553 0-1-.448-1-1v-6c0-.552.447-1 1-1h6c.553 0 1 .448 1 1v6c0 .552-.447 1-1 1zm-5-2h4v-4h-4z"/></g><g><path d="m22 47h-6c-.553 0-1-.448-1-1v-6c0-.552.447-1 1-1h6c.553 0 1 .448 1 1v6c0 .552-.447 1-1 1zm-5-2h4v-4h-4z"/></g><g><path d="m32 47h-6c-.553 0-1-.448-1-1v-6c0-.552.447-1 1-1h6c.553 0 1 .448 1 1v6c0 .552-.447 1-1 1zm-5-2h4v-4h-4z"/></g><g><path d="m46 43h-6c-.553 0-1-.448-1-1v-6c0-.552.447-1 1-1h6c.553 0 1 .448 1 1v6c0 .552-.447 1-1 1zm-5-2h4v-4h-4z"/></g><g><path d="m56 43h-6c-.553 0-1-.448-1-1v-6c0-.552.447-1 1-1h6c.553 0 1 .448 1 1v6c0 .552-.447 1-1 1zm-5-2h4v-4h-4z"/></g><g><path d="m36 45h24v2h-24z"/></g><g><path d="m53 58h-2v-4c0-1.654-1.346-3-3-3s-3 1.346-3 3v4h-2v-4c0-2.757 2.243-5 5-5s5 2.243 5 5z"/></g><g><path d="m29 58h-2v-4c0-1.654-1.346-3-3-3s-3 1.346-3 3v4h-2v-4c0-2.757 2.243-5 5-5s5 2.243 5 5z"/></g><g><path d="m11 25.716h2v32.284h-2z"/></g><g><path d="m24 19h12v2h-12z"/></g><g><path d="m14 21c-2.206 0-4-1.794-4-4h2c0 1.103.897 2 2 2s2-.897 2-2-.897-2-2-2c-2.206 0-4-1.794-4-4s1.794-4 4-4 4 1.794 4 4h-2c0-1.103-.897-2-2-2s-2 .897-2 2 .897 2 2 2c2.206 0 4 1.794 4 4s-1.794 4-4 4z"/></g><g><path d="m13 5h2v3h-2z"/></g><g><path d="m13 20h2v3h-2z"/></g><g><path d="m14 27c-7.168 0-13-5.832-13-13s5.832-13 13-13 13 5.832 13 13-5.832 13-13 13zm0-24c-6.065 0-11 4.935-11 11s4.935 11 11 11 11-4.935 11-11-4.935-11-11-11z"/></g><g><path d="m20.635 23h15.365v2h-15.365z"/></g></g></svg>