<svg height="512" viewBox="0 0 64 64" width="512" xmlns="http://www.w3.org/2000/svg"><g id="Filled_outline" data-name="Filled outline"><path d="m21 17h32a0 0 0 0 1 0 0v32a2 2 0 0 1 -2 2h-28a2 2 0 0 1 -2-2v-32a0 0 0 0 1 0 0z" fill="#d75745"/><path d="m46 12-2-3h-14l-2 3h-5a2 2 0 0 0 -2 2v3h32v-3a2 2 0 0 0 -2-2z" fill="#d75745"/><path d="m21 17h32v18h-32z" fill="#50b4f8"/><path d="m57 21h2a2 2 0 0 1 2 2v4a2 2 0 0 1 -2 2 2 2 0 0 1 -2-2v-6a0 0 0 0 1 0 0z" fill="#394d5c"/><path d="m15 21a2 2 0 0 1 2 2v4a2 2 0 0 1 -2 2h-2a0 0 0 0 1 0 0v-6a2 2 0 0 1 2-2z" fill="#394d5c" transform="matrix(-1 0 0 -1 30 50)"/><circle cx="27" cy="45" fill="#fcf05a" r="2"/><circle cx="47" cy="45" fill="#fcf05a" r="2"/><path d="m32 42h10v2h-10z" fill="#f1997e"/><path d="m21 35h32v4h-32z" fill="#fcf05a"/><path d="m34 47h6v4h-6z" fill="#f4f4e6"/><path d="m24 51h6a0 0 0 0 1 0 0v2a2 2 0 0 1 -2 2h-2a2 2 0 0 1 -2-2v-2a0 0 0 0 1 0 0z" fill="#394d5c"/><path d="m44 51h6a0 0 0 0 1 0 0v2a2 2 0 0 1 -2 2h-2a2 2 0 0 1 -2-2v-2a0 0 0 0 1 0 0z" fill="#394d5c"/><path d="m3 19h10v28h-10z" fill="#2d75bb"/><path d="m6 47h4v8h-4z" fill="#d75745"/><path d="m5 11h6a2 2 0 0 1 2 2v6a0 0 0 0 1 0 0h-10a0 0 0 0 1 0 0v-6a2 2 0 0 1 2-2z" fill="#fcf05a"/><path d="m31 12h2v2h-2z"/><path d="m35 12h4v2h-4z"/><path d="m41 12h2v2h-2z"/><path d="m59 20h-5v-6a3 3 0 0 0 -3-3h-4.465l-1.7-2.555a1 1 0 0 0 -.835-.445h-14a1 1 0 0 0 -.832.445l-1.703 2.555h-4.465a3 3 0 0 0 -3 3v6h-5a2.966 2.966 0 0 0 -1 .184v-7.184a3 3 0 0 0 -3-3h-6a3 3 0 0 0 -3 3v35h3v8h6v-8h3v-18.184a2.966 2.966 0 0 0 1 .184 3 3 0 0 0 3-3v-5h2v27a3 3 0 0 0 3 3v1a3 3 0 0 0 3 3h2a3 3 0 0 0 3-3v-1h12v1a3 3 0 0 0 3 3h2a3 3 0 0 0 3-3v-1a3 3 0 0 0 3-3v-27h2v5a3 3 0 0 0 6 0v-4a3 3 0 0 0 -3-3zm-55-7a1 1 0 0 1 1-1h6a1 1 0 0 1 1 1v5h-8zm5 41h-2v-6h2zm3-8h-8v-26h8zm4-19a1 1 0 0 1 -2 0v-4a1 1 0 0 1 1-1h1zm6-13a1 1 0 0 1 1-1h5a1 1 0 0 0 .832-.445l1.703-2.555h12.93l1.7 2.555a1 1 0 0 0 .835.445h5a1 1 0 0 1 1 1v2h-30zm30 22v2h-30v-2zm-23 17a1 1 0 0 1 -1 1h-2a1 1 0 0 1 -1-1v-1h4zm6-3v-2h4v2zm14 3a1 1 0 0 1 -1 1h-2a1 1 0 0 1 -1-1v-1h4zm3-4a1 1 0 0 1 -1 1h-10v-2h2v-2h-12v2h2v2h-10a1 1 0 0 1 -1-1v-9h30zm-12.149-15 2.5-2h6.649v-2h-7.351l-5 4h-9.8l2.5-2h6.651v-2h-7.351l-5 4h-1.649v-16h30v16zm20.149-7a1 1 0 0 1 -2 0v-5h1a1 1 0 0 1 1 1z"/><path d="m27 48a3 3 0 1 0 -3-3 3 3 0 0 0 3 3zm0-4a1 1 0 1 1 -1 1 1 1 0 0 1 1-1z"/><path d="m47 48a3 3 0 1 0 -3-3 3 3 0 0 0 3 3zm0-4a1 1 0 1 1 -1 1 1 1 0 0 1 1-1z"/><path d="m32 42h10v2h-10z"/><path d="m24 24h2v-2h4v-2h-6z"/><path d="m24 26h2v2h-2z"/><path d="m6 14h4v2h-4z"/><path d="m6 22h4v2h-4z"/><path d="m6 26h4v2h-4z"/><path d="m6 30h4v2h-4z"/><path d="m6 36h4v2h-4z"/></g></svg>