<?xml version="1.0" encoding="iso-8859-1"?>
<!-- Generator: Adobe Illustrator 19.0.0, SVG Export Plug-In . SVG Version: 6.00 Build 0)  -->
<svg version="1.1" id="Capa_1" xmlns="http://www.w3.org/2000/svg" xmlns:xlink="http://www.w3.org/1999/xlink" x="0px" y="0px"
	 viewBox="0 0 512 512" style="enable-background:new 0 0 512 512;" xml:space="preserve">
<circle style="fill:#590F38;" cx="256" cy="256" r="256"/>
<path style="fill:#380825;" d="M512,256c0-1.356-0.03-2.706-0.051-4.058l-62.37-62.37l-85.394,138.365L225.819,189.572
	L62.422,361.114l146.562,146.562C224.226,510.506,239.938,512,256,512C397.385,512,512,397.385,512,256z"/>
<polygon style="fill:#FFFFFF;" points="187.133,150.886 62.422,150.886 62.422,361.114 225.819,361.114 225.819,189.572 "/>
<g>
	<rect x="62.42" y="256" style="fill:#E0E0E0;" width="163.4" height="105.11"/>
	<polygon style="fill:#E0E0E0;" points="187.133,189.572 225.819,189.572 187.133,150.887 	"/>
</g>
<polygon style="fill:#FFFFFF;" points="410.892,150.886 286.181,150.886 286.181,361.114 449.578,361.114 449.578,189.572 "/>
<g>
	<rect x="286.18" y="256" style="fill:#E0E0E0;" width="163.4" height="105.11"/>
	<polygon style="fill:#E0E0E0;" points="410.892,189.572 449.578,189.572 410.892,150.887 	"/>
</g>
<polygon style="fill:#35CCFF;" points="279.326,244.545 194.307,244.545 194.307,267.455 279.326,267.455 255.988,294.839 
	284.077,294.839 317.159,256 284.078,217.161 255.988,217.161 "/>
<polygon style="fill:#00BAFF;" points="194.307,256 194.307,267.455 279.326,267.455 255.988,294.839 284.077,294.839 317.158,256 
	"/>
<rect x="158.06" y="244.54" style="fill:#35CCFF;" width="21.359" height="22.91"/>
<rect x="158.06" y="256" style="fill:#00BAFF;" width="21.359" height="11.455"/>
<rect x="131.81" y="244.54" style="fill:#35CCFF;" width="11.359" height="22.91"/>
<rect x="131.81" y="256" style="fill:#00BAFF;" width="11.359" height="11.455"/>
<g>
</g>
<g>
</g>
<g>
</g>
<g>
</g>
<g>
</g>
<g>
</g>
<g>
</g>
<g>
</g>
<g>
</g>
<g>
</g>
<g>
</g>
<g>
</g>
<g>
</g>
<g>
</g>
<g>
</g>
</svg>
