<?xml version="1.0" encoding="iso-8859-1"?>
<!-- Generator: Adobe Illustrator 19.0.0, SVG Export Plug-In . SVG Version: 6.00 Build 0)  -->
<svg version="1.1" id="Capa_1" xmlns="http://www.w3.org/2000/svg" xmlns:xlink="http://www.w3.org/1999/xlink" x="0px" y="0px"
	 viewBox="0 0 512 512" style="enable-background:new 0 0 512 512;" xml:space="preserve">
<rect x="10.166" y="10" style="fill:#EDF2FA;" width="438" height="372"/>
<polygon style="fill:#A0E557;" points="10.166,136.258 273.096,136.258 248.166,10 10.166,10 "/>
<polygon style="fill:#FFC66C;" points="448.166,136 328.714,136 303.783,10 448.166,10 "/>
<polygon style="fill:#ADE5FF;" points="135.672,382 226.889,202 10.166,202 10.166,382 "/>
<polygon style="fill:#FE8F8D;" points="448.166,382 448.166,202 282.595,202 189.283,382 "/>
<path style="fill:#FF5D5D;" d="M201.302,137.136c0-40.392-32.744-73.136-73.136-73.136s-73.137,32.744-73.137,73.136
	c0,17.686,6.278,33.905,16.726,46.551h-0.042l56.453,72.324l56.723-72.705h-0.005C195.146,170.716,201.302,154.646,201.302,137.136z
	 M128.152,170.527c-17.735,0-32.112-14.377-32.112-32.112s14.377-32.112,32.112-32.112s32.112,14.377,32.112,32.112
	S145.887,170.527,128.152,170.527z"/>
<circle style="fill:#FFC66C;" cx="373.829" cy="374" r="128"/>
<path d="M361.666,192c-2.63,0-5.21,1.07-7.07,2.93c-1.86,1.86-2.93,4.44-2.93,7.07s1.069,5.21,2.93,7.07s4.44,2.93,7.07,2.93
	s5.21-1.07,7.069-2.93c1.86-1.86,2.931-4.44,2.931-7.07s-1.07-5.21-2.931-7.07C366.875,193.07,364.295,192,361.666,192z"/>
<path d="M458.166,264.846V10c0-5.523-4.478-10-10-10h-438c-5.522,0-10,4.477-10,10v372c0,5.522,4.478,10,10,10h125.465
	c0.011,0,0.023,0.002,0.034,0.002c0.01,0,0.019-0.002,0.029-0.002h53.548c0.011,0,0.023,0.002,0.034,0.002
	c0.01,0,0.019-0.002,0.029-0.002h47.703c8.847,67.62,66.833,120,136.826,120c76.094,0,138-61.906,138-138
	C511.832,329.641,490.789,290.109,458.166,264.846z M373.832,236c-75.425,0-136.9,60.826-137.975,136H205.56l81.081-160h32.082
	c5.522,0,10-4.477,10-10s-4.478-10-10-10h-38.224c-3.769,0-7.217,2.118-8.92,5.479L183.14,372h-31.189l83.857-165.479
	c1.571-3.1,1.42-6.793-0.399-9.754S230.364,192,226.888,192H190.79l1.983-2.542c0.016-0.021,0.032-0.042,0.049-0.063
	c10.054-12.427,16.277-27.57,17.984-43.395h62.29c2.992,0,5.827-1.34,7.727-3.652c1.899-2.312,2.664-5.353,2.083-8.289L260.338,20
	h35.23l23.336,117.941c0.927,4.684,5.035,8.059,9.81,8.059h109.452v46h-31c-5.522,0-10,4.477-10,10s4.478,10,10,10h31v39.945
	C418.944,241.773,397.051,236,373.832,236z M80.114,178.198c-0.198-0.303-0.415-0.596-0.649-0.879
	c-9.309-11.268-14.436-25.539-14.436-40.183C65.029,102.323,93.352,74,128.166,74s63.137,28.323,63.137,63.136
	c0,14.488-5.032,28.642-14.17,39.853c-0.104,0.127-0.204,0.257-0.302,0.388l-48.667,62.38L80.114,178.198z M438.166,126H336.928
	L315.955,20h122.211V126z M239.95,20l20.973,106h-50.389c-5.461-40.592-40.305-72-82.369-72c-45.841,0-83.136,37.295-83.136,83.136
	c0,18.986,6.547,37.498,18.454,52.232c0.111,0.16,0.227,0.318,0.348,0.473l1.686,2.16H20.166V20H239.95z M20.166,304h69.375
	c5.522,0,10-4.478,10-10s-4.478-10-10-10H20.166v-72h60.962l39.156,50.165c1.896,2.428,4.804,3.847,7.884,3.847
	c3.08,0,5.988-1.42,7.884-3.849l39.173-50.21c0.311,0.029,0.624,0.048,0.942,0.048h34.444L129.529,372H20.166V304z M373.832,492
	c-65.065,0-118-52.935-118-118s52.935-118,118-118s118,52.934,118,118S438.898,492,373.832,492z"/>
<path d="M170.166,138.303c0-23.159-18.841-42-42-42s-42,18.841-42,42s18.841,42,42,42S170.166,161.462,170.166,138.303z
	 M106.166,138.303c0-12.131,9.869-22,22-22s22,9.869,22,22s-9.869,22-22,22S106.166,150.434,106.166,138.303z"/>
<path d="M327.332,364h-9.333c-5.522,0-10,4.478-10,10c0,5.299,4.122,9.636,9.334,9.979v7.855c0,2.297-1.869,4.166-4.167,4.166h-15.5
	c-2.298,0-4.167-1.869-4.167-4.166v-35.667c0-2.298,1.869-4.167,4.167-4.167h19.833c5.522,0,10-4.478,10-10s-4.478-10-10-10h-19.833
	c-13.326,0-24.167,10.841-24.167,24.167v35.667c0,13.325,10.841,24.166,24.167,24.166h15.5c13.326,0,24.167-10.841,24.167-24.166
	V374C337.332,368.478,332.855,364,327.332,364z"/>
<path d="M383.702,332h-23.407c-5.522,0-10,4.478-10,10v64c0,5.522,4.478,10,10,10s10-4.478,10-10v-22h13.407
	c14.337,0,26-11.663,26-26S398.039,332,383.702,332z M383.702,364h-13.407v-12h13.407c3.309,0,6,2.691,6,6S387.01,364,383.702,364z"
	/>
<path d="M451.916,364h-5c-3.309,0-6-2.691-6-6s2.691-6,6-6h16.998c5.522,0,10-4.478,10-10s-4.478-10-10-10h-16.998
	c-14.337,0-26,11.663-26,26s11.663,26,26,26h5c3.309,0,6,2.691,6,6s-2.691,6-6,6h-16c-5.522,0-10,4.478-10,10s4.478,10,10,10h16
	c14.337,0,26-11.663,26-26S466.253,364,451.916,364z"/>
<path d="M135.225,301.069c1.86-1.859,2.92-4.439,2.92-7.069s-1.06-5.21-2.92-7.07c-1.859-1.86-4.439-2.93-7.069-2.93
	c-2.641,0-5.221,1.069-7.07,2.93c-1.87,1.86-2.93,4.44-2.93,7.07s1.06,5.21,2.93,7.069c1.86,1.86,4.43,2.931,7.07,2.931
	C130.786,304,133.355,302.93,135.225,301.069z"/>
<g>
</g>
<g>
</g>
<g>
</g>
<g>
</g>
<g>
</g>
<g>
</g>
<g>
</g>
<g>
</g>
<g>
</g>
<g>
</g>
<g>
</g>
<g>
</g>
<g>
</g>
<g>
</g>
<g>
</g>
</svg>
