<svg height="512" viewBox="0 0 64 64" width="512" xmlns="http://www.w3.org/2000/svg"><g id="Filled_outline" data-name="Filled outline"><rect fill="#394d5c" height="58" rx="4" width="34" x="15" y="3"/><path d="m15 11h34v42h-34z" fill="#f4f4e6"/><path d="m26 3h12v4h-12z" fill="#7d8d9c"/><path d="m45 17c0 2.209-4 8-4 8s-4-5.791-4-8a4 4 0 0 1 8 0z" fill="#d75745"/><path d="m37 27h8v6h-8z" fill="#55b56a"/><path d="m25 33v-12h-6v12 6h10v-6z" fill="#c8d952"/><path d="m19 43h10v6h-10z" fill="#c8d952"/><path d="m37 41h8v4h-8z" fill="#55b56a"/><path d="m19 62h26a5.006 5.006 0 0 0 5-5v-50a5.006 5.006 0 0 0 -5-5h-26a5.006 5.006 0 0 0 -5 5v50a5.006 5.006 0 0 0 5 5zm15-24h14v10h-13a1 1 0 0 1 -1-1zm14-2h-14v-5a3 3 0 0 0 -3-3 1 1 0 0 1 -1-1v-8a3 3 0 0 0 -3-3h-11v-4h32zm-32-18h11a1 1 0 0 1 1 1v8a3 3 0 0 0 3 3 1 1 0 0 1 1 1v16a3 3 0 0 0 3 3h13v2h-32zm21-14v2h-10v-2zm-21 3a3 3 0 0 1 3-3h6v3a1 1 0 0 0 1 1h12a1 1 0 0 0 1-1v-3h6a3 3 0 0 1 3 3v3h-32zm32 47v3a3 3 0 0 1 -3 3h-26a3 3 0 0 1 -3-3v-3z"/><path d="m23 56h18v2h-18z"/><path d="m36 17c0 2.4 3.479 7.559 4.177 8.568a1 1 0 0 0 1.646 0c.698-1.009 4.177-6.168 4.177-8.568a5 5 0 0 0 -10 0zm5-3a3 3 0 0 1 3 3c0 1.092-1.561 3.943-3 6.192-1.439-2.249-3-5.1-3-6.192a3 3 0 0 1 3-3z"/><path d="m36 34h10v-8h-10zm2-6h6v4h-6z"/><path d="m26 20h-8v20h12v-8h-4zm2 14v4h-8v-16h4v12z"/><path d="m18 50h12v-8h-12zm2-6h8v4h-8z"/><path d="m46 40h-10v6h10zm-2 4h-6v-2h6z"/></g></svg>