<svg id="Layer_1" enable-background="new 0 0 512 512" height="512" viewBox="0 0 512 512" width="512" xmlns="http://www.w3.org/2000/svg"><g><g><g><path d="m56.476 211.66c-6.665-.373-14.638-.652-23.581-.652s-16.915.279-23.581.653c-.934 11.102-1.814 26.342-1.814 44.349s.88 33.247 1.814 44.35c6.665.373 14.638.652 23.581.652s16.915-.279 23.581-.653z" fill="#97a3b7"/></g><g><path d="m384.92 256.001c0 110.82-16.35 190.67-16.35 190.67-17.01-4.95-33.44-10.52-49.15-16.48-105.07-39.8-178.19-96.59-178.19-96.59v-155.05s73.24-57 178.46-96.84c15.63-5.92 31.97-11.46 48.88-16.38 0 0 16.35 79.84 16.35 190.67z" fill="#ff3976"/></g><g><path d="m144.4 256.011c0 31.51-1.54 58.17-3.17 77.59-7.73.43-16.48.79-26.05.99-4.86.1-9.93.15-15.2.15-15.65 0-29.6-.49-41.26-1.14-1.63-19.43-3.17-46.09-3.17-77.59s1.54-58.17 3.17-77.59c11.66-.65 25.61-1.14 41.26-1.14 5.27 0 10.34.05 15.2.15 9.57.2 18.32.56 26.05.99 1.63 19.42 3.17 46.09 3.17 77.59z" fill="#525d72"/></g><g><path d="m144.4 256.011c0 31.51-1.54 58.17-3.17 77.59-7.73.43-16.48.79-26.05.99 1.23-21.46 2.22-48.15 2.22-78.58s-.99-57.12-2.22-78.58c9.57.2 18.32.56 26.05.99 1.63 19.42 3.17 46.09 3.17 77.59z" fill="#313b4c"/></g><g><path d="m384.92 256.001c0 110.82-16.35 190.67-16.35 190.67-8.33-2.42-16.53-5-24.56-7.7-8.37-2.8-16.58-5.74-24.59-8.78l-.18-.34s14.91-72.8 14.91-173.85-14.91-173.85-14.91-173.85l.45-.44c7.93-3 16.04-5.91 24.31-8.69 8.04-2.69 16.24-5.27 24.57-7.69 0 0 16.35 79.84 16.35 190.67z" fill="#525d72"/></g><g><path d="m368.57 65.331s16.35 79.84 16.35 190.67c0 110.82-16.35 190.67-16.35 190.67-8.33-2.42-16.53-5-24.56-7.7 3.99-22.51 14.91-92.4 14.91-182.97 0-90.6-10.92-160.48-14.92-182.98 8.04-2.69 16.24-5.27 24.57-7.69z" fill="#313b4c"/></g></g><g><g><g><path d="m32.895 308.513c-8.064 0-16.139-.223-24-.663-3.732-.209-6.741-3.135-7.055-6.859-1.221-14.517-1.84-29.651-1.84-44.981 0-15.331.619-30.464 1.84-44.979.313-3.725 3.322-6.65 7.054-6.859 15.689-.879 32.237-.881 48.001 0 4.136.231 7.301 3.772 7.069 7.907-.231 4.136-3.785 7.295-7.907 7.069-13.031-.729-26.626-.835-39.775-.313-.851 12.081-1.282 24.555-1.282 37.175 0 12.619.431 25.094 1.282 37.176 13.182.523 26.793.415 39.774-.313 4.123-.222 7.676 2.932 7.908 7.068s-2.933 7.676-7.068 7.908c-7.854.44-15.929.664-24.001.664z"/></g><g><path d="m99.975 342.239c-13.995 0-28.016-.388-41.672-1.153-3.732-.209-6.741-3.135-7.054-6.859-2.124-25.241-3.201-51.558-3.201-78.217 0-26.66 1.077-52.975 3.201-78.216.313-3.725 3.322-6.65 7.054-6.859 27.262-1.528 56.016-1.53 83.345 0 3.732.209 6.741 3.134 7.054 6.859 1.175 13.968 2.04 28.504 2.57 43.207.149 4.14-3.085 7.616-7.225 7.766-4.162.152-7.616-3.085-7.766-7.225-.44-12.188-1.113-24.255-2.004-35.965-22.612-1.055-46.043-1.054-68.605 0-1.742 22.823-2.625 46.483-2.625 70.434s.882 47.611 2.625 70.435c22.604 1.057 46.016 1.055 68.606 0 1.742-22.822 2.624-46.482 2.624-70.435 0-4.142 3.358-7.5 7.5-7.5s7.5 3.358 7.5 7.5c0 26.66-1.077 52.976-3.2 78.216-.313 3.725-3.322 6.65-7.054 6.859-13.651.765-27.672 1.153-41.673 1.153z"/></g><g><path d="m141.235 186.056c-2.235 0-4.446-.994-5.925-2.895-2.543-3.269-1.956-7.979 1.313-10.523.978-.761 99.276-76.529 229.856-114.509 2.013-.584 4.176-.302 5.969.78 1.794 1.082 3.053 2.865 3.474 4.917.124.607 3.086 15.165 6.506 40.544.554 4.105-2.326 7.881-6.431 8.435-4.099.557-7.882-2.325-8.435-6.431-1.887-14-3.652-24.742-4.838-31.472-123.747 37.832-215.953 108.846-216.89 109.574-1.368 1.064-2.99 1.58-4.599 1.58z"/></g><g><path d="m368.573 454.17c-.702 0-1.407-.099-2.095-.299-34.131-9.927-69.024-23.263-103.712-39.637-3.746-1.768-5.35-6.238-3.581-9.983 1.768-3.747 6.239-5.35 9.983-3.581 31.282 14.766 62.711 27.003 93.547 36.427 4.008-22.887 14.707-92.313 14.707-181.097 0-39.187-2.042-78.788-6.069-117.705-.427-4.12 2.567-7.806 6.688-8.232 4.13-.436 7.806 2.568 8.232 6.688 4.08 39.428 6.149 79.549 6.149 119.249 0 110.311-16.337 191.368-16.502 192.175-.42 2.052-1.68 3.835-3.473 4.917-1.179.712-2.521 1.078-3.874 1.078z"/></g><g><path d="m234.646 399.309c-1.18 0-2.376-.279-3.492-.868-57.49-30.319-93.04-57.767-94.525-58.921-3.271-2.54-3.863-7.25-1.323-10.521 2.539-3.272 7.25-3.865 10.523-1.325.354.274 36.084 27.841 92.322 57.5 3.664 1.932 5.068 6.469 3.135 10.133-1.344 2.547-3.948 4.002-6.64 4.002z"/></g><g><path d="m334.11 272.847c-.022 0-.045 0-.067 0-4.142-.037-7.47-3.425-7.434-7.566.027-3.066.042-6.16.042-9.28 0-99.027-14.608-171.623-14.756-172.345-.83-4.058 1.787-8.021 5.845-8.851 4.056-.834 8.019 1.785 8.851 5.843.15.735 15.061 74.709 15.061 175.353 0 3.165-.015 6.304-.042 9.413-.038 4.118-3.388 7.433-7.5 7.433z"/></g><g><path d="m319.252 437.349c-.498 0-1.004-.05-1.511-.153-4.058-.831-6.675-4.793-5.845-8.852.105-.514 10.547-52.275 13.789-127.666.177-4.139 3.67-7.366 7.815-7.171 4.139.178 7.349 3.677 7.171 7.815-3.297 76.674-13.973 129.505-14.08 130.03-.727 3.55-3.851 5.997-7.339 5.997z"/></g><g><g><path d="m99.98 218.5c-.49 0-.99-.05-1.47-.15-.48-.09-.95-.24-1.4-.43-.46-.18-.89-.41-1.3-.68-.41-.28-.79-.59-1.14-.94-.34-.34-.66-.73-.93-1.14-.27-.4-.5-.84-.69-1.29s-.33-.93-.43-1.41-.14-.97-.14-1.46.04-.98.14-1.47c.1-.47.24-.95.43-1.4s.42-.89.69-1.29c.27-.41.59-.8.93-1.14.35-.35.73-.66 1.14-.94.41-.27.84-.5 1.3-.69.45-.18.92-.33 1.4-.42.97-.2 1.96-.2 2.93 0 .48.09.95.24 1.4.42.46.19.89.42 1.3.69.41.28.79.59 1.14.94 1.4 1.39 2.2 3.33 2.2 5.3 0 .49-.05.98-.15 1.46s-.24.96-.43 1.41-.42.89-.69 1.29c-.27.41-.58.8-.93 1.14-.35.35-.73.66-1.14.94-.41.27-.84.5-1.3.68-.45.19-.92.34-1.4.43-.48.1-.98.15-1.46.15z"/></g><g><path d="m99.98 263.5c-.49 0-.99-.05-1.47-.15-.48-.09-.95-.24-1.4-.42-.46-.189-.89-.42-1.3-.689-.41-.28-.79-.591-1.14-.94-.34-.34-.66-.73-.93-1.14-.27-.4-.5-.841-.69-1.29-.19-.45-.33-.931-.43-1.4-.1-.49-.14-.98-.14-1.47 0-1.97.8-3.91 2.19-5.3 1.4-1.4 3.33-2.2 5.31-2.2 1.97 0 3.9.8 5.3 2.2 1.4 1.39 2.2 3.33 2.2 5.3 0 .49-.05.98-.15 1.47-.1.47-.24.95-.43 1.4-.19.449-.42.89-.69 1.29-.27.409-.59.8-.93 1.14-.35.35-.73.66-1.14.94-.41.27-.84.5-1.3.689-.45.18-.92.33-1.4.42-.48.1-.98.15-1.46.15z"/></g><g><path d="m99.98 308.5c-.49 0-.99-.05-1.47-.15-.48-.09-.95-.24-1.4-.42-.46-.189-.89-.42-1.3-.689-.41-.28-.79-.591-1.14-.94-.34-.34-.66-.73-.93-1.14-.27-.4-.5-.841-.69-1.29-.19-.45-.33-.931-.43-1.4-.09-.49-.14-.979-.14-1.47s.05-.98.14-1.47c.1-.471.24-.95.43-1.4s.42-.89.69-1.29c.27-.42.59-.8.93-1.14 1.74-1.75 4.33-2.551 6.77-2.051.48.091.95.24 1.41.42.45.19.88.421 1.29.69.41.28.79.59 1.14.94.35.34.66.72.93 1.14.27.4.5.84.69 1.29s.33.93.43 1.4c.1.489.15.979.15 1.47 0 1.979-.8 3.91-2.2 5.3-.35.35-.73.66-1.14.94-.41.27-.84.5-1.29.689-.46.18-.93.33-1.41.42-.48.101-.98.151-1.46.151z"/></g></g></g><g><path d="m504.5 304.739c-1.919 0-3.839-.732-5.304-2.196l-82.457-82.458c-2.929-2.929-2.929-7.678 0-10.606 2.93-2.929 7.678-2.929 10.607 0l82.457 82.457c2.929 2.93 2.929 7.678 0 10.607-1.464 1.464-3.384 2.196-5.303 2.196z"/></g><g><path d="m422.043 304.739c-1.919 0-3.839-.732-5.304-2.196-2.929-2.93-2.929-7.678 0-10.607l82.457-82.457c2.93-2.929 7.678-2.929 10.607 0s2.929 7.678 0 10.606l-82.457 82.458c-1.464 1.464-3.384 2.196-5.303 2.196z"/></g></g></g></svg>