<?xml version="1.0" encoding="iso-8859-1"?>
<!-- Generator: Adobe Illustrator 21.0.0, SVG Export Plug-In . SVG Version: 6.00 Build 0)  -->
<svg version="1.1" id="Capa_1" xmlns="http://www.w3.org/2000/svg" xmlns:xlink="http://www.w3.org/1999/xlink" x="0px" y="0px"
	 viewBox="0 0 512 512" style="enable-background:new 0 0 512 512;" xml:space="preserve">
<g>
	<g transform="translate(1 1)">
		<path style="fill:#C52828;" d="M361.676,24.6V383H88.61V7.533h256C354.024,7.561,361.648,15.186,361.676,24.6z"/>
		<path style="fill:#F44335;" d="M336.076,24.6V383H88.61V7.533h230.4C328.424,7.561,336.048,15.186,336.076,24.6z"/>
		<path style="fill:#BFB186;" d="M417.74,376.685l-35.243,119.637c-1.029,3.663-4.387,6.182-8.192,6.144H266.7
			c-3.781,0.048-7.131-2.429-8.192-6.059c-17.067-58.539,0.768-130.475,0.768-130.475v-92.416
			c-0.024-9.561,4.877-18.461,12.971-23.552c3.248-2.007,6.941-3.179,10.752-3.413c7.094-0.522,14.085,1.932,19.297,6.772
			c5.212,4.84,8.176,11.63,8.18,18.743V357.4c-0.01,7.033,2.874,13.76,7.974,18.602c5.1,4.842,11.968,7.373,18.991,6.998
			c13.913-1.284,24.481-13.081,24.235-27.051V220.867c0,0,51.712,71.083,59.307,130.133
			C422.051,359.698,420.936,368.525,417.74,376.685z"/>
		<path style="fill:#FFE0B2;" d="M392.14,376.685l-35.243,119.637c-1.029,3.663-4.387,6.182-8.192,6.144H266.7
			c-3.781,0.048-7.131-2.429-8.192-6.059c-17.067-58.539,0.768-130.475,0.768-130.475v-92.416
			c-0.024-9.561,4.877-18.461,12.971-23.552c1.849,1.144,3.566,2.489,5.12,4.011c4.808,4.793,7.51,11.302,7.509,18.091V357.4
			c-0.01,7.033,2.874,13.76,7.974,18.602c5.1,4.842,11.968,7.373,18.991,6.998c3.992-0.182,7.871-1.387,11.264-3.499
			c4.328,2.558,9.317,3.775,14.336,3.499c13.913-1.284,24.481-13.081,24.235-27.051v-94.293
			c14.251,25.429,29.781,58.965,33.707,89.344C396.451,359.698,395.336,368.525,392.14,376.685z"/>
	</g>
	<g>
		<path d="M371.21,219.145V25.6c0-14.138-11.462-25.6-25.6-25.6h-256c-4.713,0-8.533,3.821-8.533,8.533V384
			c0,4.713,3.821,8.533,8.533,8.533h157.295c-4.019,28.57-6.963,74.325,6.4,113.673c1.174,3.463,4.424,5.794,8.081,5.794h120.32
			c3.785-0.002,7.116-2.496,8.183-6.127l36.83-125.124c3.7-9.492,4.987-19.754,3.746-29.867
			C423.34,295.484,380.11,231.774,371.21,219.145z M98.143,375.467v-358.4H345.61c4.713,0,8.533,3.821,8.533,8.533v332.8
			c0,9.426-7.641,17.067-17.067,17.067c-9.426,0-17.067-7.641-17.067-17.067v-85.333c0-18.851-15.282-34.133-34.133-34.133
			s-34.133,15.282-34.133,34.133H166.41c-4.713,0-8.533,3.82-8.533,8.533s3.82,8.533,8.533,8.533h85.333v75.785
			c-0.375,1.604-1.126,4.992-2.005,9.549H98.143z M410.574,375.279l-35.251,119.654H267.641
			c-16.128-55.603,0.742-125.227,0.922-125.952c0.164-0.67,0.247-1.358,0.247-2.048v-93.867c0-9.426,7.641-17.067,17.067-17.067
			s17.067,7.641,17.067,17.067V358.4c0,18.851,15.282,34.133,34.133,34.133s34.133-15.282,34.133-34.133V250.411
			c15.488,25.284,37.7,66.679,42.325,102.665C414.411,360.608,413.393,368.239,410.574,375.279z"/>
		<path d="M226.143,238.933c51.841,0,93.867-42.026,93.867-93.867S277.984,51.2,226.143,51.2s-93.867,42.026-93.867,93.867
			C132.338,196.882,174.327,238.872,226.143,238.933z M149.847,153.6h25.378c0.509,12.347,2.441,24.594,5.76,36.497
			c1.053,3.651,4.392,6.166,8.192,6.17c0.805-0.002,1.606-0.114,2.381-0.333c4.523-1.312,7.127-6.04,5.82-10.564
			c-2.896-10.364-4.614-21.021-5.12-31.77h25.353v42.667c0,4.713,3.82,8.533,8.533,8.533s8.533-3.821,8.533-8.533V153.6h25.378
			c-2.082,40.636-18.773,68.267-33.911,68.267C187.055,221.814,154.228,192.442,149.847,153.6z M261.702,213.077
			c9.642-18.377,14.915-38.73,15.411-59.477h25.327C299.567,178.956,284.306,201.236,261.702,213.077z M302.44,136.533h-25.378
			c-0.509-12.347-2.441-24.594-5.76-36.497c-0.78-3.003-3.129-5.346-6.134-6.119c-3.005-0.773-6.193,0.147-8.325,2.401
			c-2.132,2.254-2.872,5.488-1.934,8.446c2.896,10.364,4.614,21.021,5.12,31.77h-25.353V93.867c0-4.713-3.821-8.533-8.533-8.533
			s-8.533,3.821-8.533,8.533v42.667h-25.378c2.082-40.636,18.773-68.267,33.911-68.267C265.231,68.32,298.058,97.692,302.44,136.533
			z M190.585,77.056c-9.642,18.377-14.915,38.73-15.411,59.477h-25.327C152.719,111.177,167.98,88.897,190.585,77.056z"/>
		<path d="M226.143,315.733h-25.6c-4.713,0-8.533,3.821-8.533,8.533s3.821,8.533,8.533,8.533h25.6c4.713,0,8.533-3.82,8.533-8.533
			S230.856,315.733,226.143,315.733z"/>
	</g>
</g>
<g>
</g>
<g>
</g>
<g>
</g>
<g>
</g>
<g>
</g>
<g>
</g>
<g>
</g>
<g>
</g>
<g>
</g>
<g>
</g>
<g>
</g>
<g>
</g>
<g>
</g>
<g>
</g>
<g>
</g>
</svg>
