<svg height="512pt" viewBox="-34 0 512 512.00022" width="512pt" xmlns="http://www.w3.org/2000/svg"><path d="m409.601562 249.855469v29.355469c.011719 1.558593.421876 3.085937 1.195313 4.4375l23.207031 38.570312c.773438 1.351562 1.183594 2.878906 1.195313 4.4375v159.742188c-.027344 9.414062-7.652344 17.039062-17.066407 17.070312h-392.53125c-9.414062-.03125-17.039062-7.65625-17.066406-17.070312v-159.742188c.011719-1.558594.421875-3.085938 1.191406-4.4375l23.210938-38.570312c.773438-1.351563 1.183594-2.878907 1.195312-4.4375v-29.355469c-.011718-1.554688-.421874-3.082031-1.195312-4.4375l-23.210938-38.570313c-.769531-1.351562-1.179687-2.878906-1.191406-4.4375v-61.695312c-.003906-13.601563 5.398438-26.648438 15.015625-36.265625l80.898438-80.898438c9.617187-9.617187 22.664062-15.019531 36.265625-15.015625h277.417968c9.414063.027344 17.039063 7.652344 17.066407 17.066406v176.808594c-.011719 1.558594-.421875 3.085938-1.195313 4.4375l-23.207031 38.570313c-.773437 1.355469-1.183594 2.882812-1.195313 4.4375zm0 0" fill="#37474f"/><path d="m384 249.855469v29.355469c.011719 1.558593.425781 3.085937 1.195312 4.4375l23.210938 38.570312c.769531 1.351562 1.183594 2.878906 1.195312 4.4375v159.742188c-.027343 9.414062-7.652343 17.039062-17.066406 17.070312h-366.933594c-9.414062-.03125-17.039062-7.65625-17.066406-17.070312v-159.742188c.011719-1.558594.421875-3.085938 1.191406-4.4375l23.210938-38.570312c.773438-1.351563 1.183594-2.878907 1.195312-4.4375v-29.355469c-.011718-1.554688-.421874-3.082031-1.195312-4.4375l-23.210938-38.570313c-.769531-1.351562-1.179687-2.878906-1.191406-4.4375v-61.695312c-.003906-13.601563 5.398438-26.648438 15.015625-36.265625l80.898438-80.898438c9.617187-9.617187 22.664062-15.019531 36.265625-15.015625h251.820312c9.414063.027344 17.039063 7.652344 17.066406 17.066406v176.808594c-.011718 1.558594-.425781 3.085938-1.195312 4.4375l-23.210938 38.570313c-.769531 1.355469-1.183593 2.882812-1.195312 4.4375zm0 0" fill="#607d8b"/><path d="m68.265625 110.933594h34.132813c4.714843 0 8.535156 3.820312 8.535156 8.535156v59.730469c0 4.714843-3.820313 8.535156-8.535156 8.535156h-34.132813c-4.710937 0-8.53125-3.820313-8.53125-8.535156v-59.730469c0-4.714844 3.820313-8.535156 8.53125-8.535156zm0 0" fill="#37474f"/><path d="m153.601562 42.667969h238.933594c4.710938 0 8.53125 3.820312 8.53125 8.53125v59.734375c0 4.710937-3.820312 8.535156-8.53125 8.535156h-238.933594c-4.714843 0-8.535156-3.824219-8.535156-8.535156v-59.734375c0-4.710938 3.820313-8.53125 8.535156-8.53125zm0 0" fill="#fec108"/><path d="m153.601562 42.667969h213.332032c4.714844 0 8.535156 3.820312 8.535156 8.53125v59.734375c0 4.710937-3.820312 8.535156-8.535156 8.535156h-213.332032c-4.714843 0-8.535156-3.824219-8.535156-8.535156v-59.734375c0-4.710938 3.820313-8.53125 8.535156-8.53125zm0 0" fill="#ffdc00"/><path d="m309.503906 443.734375h-175.273437c-11.839844.289063-22.964844-5.640625-29.320313-15.628906-6.359375-9.992188-7.019531-22.582031-1.742187-33.183594l87.636719-145.832031c3.820312-7.539063 10.339843-13.359375 18.261718-16.300782 16.636719-6.558593 35.542969.46875 43.863282 16.300782l87.636718 145.832031c5.277344 10.601563 4.617188 23.191406-1.742187 33.183594-6.355469 9.988281-17.480469 15.917969-29.320313 15.628906zm0 0" fill="#fec108"/><path d="m283.90625 443.734375h-149.675781c-11.839844.289063-22.964844-5.640625-29.320313-15.628906-6.359375-9.992188-7.019531-22.582031-1.742187-33.183594l87.636719-145.832031c3.820312-7.539063 10.339843-13.359375 18.261718-16.300782 7.921875 2.941407 14.441406 8.761719 18.261719 16.300782l87.636719 145.832031c5.277344 10.601563 4.617187 23.191406-1.738282 33.183594-6.359374 9.988281-17.484374 15.917969-29.320312 15.628906zm0 0" fill="#ffdc00"/><path d="m418.132812 512h-392.53125c-14.132812-.015625-25.585937-11.46875-25.601562-25.601562v-162.132813c0-4.710937 3.820312-8.53125 8.535156-8.53125 4.710938 0 8.53125 3.820313 8.53125 8.53125v162.132813c.007813 4.710937 3.824219 8.527343 8.535156 8.535156h392.53125c4.710938-.007813 8.527344-3.824219 8.535157-8.535156v-159.769532l-23.167969-38.613281c-1.589844-2.648437-2.433594-5.683594-2.433594-8.777344v-29.410156c0-3.09375.84375-6.128906 2.433594-8.78125l23.167969-38.613281v-176.832032c-.007813-4.710937-3.824219-8.527343-8.535157-8.535156h-277.417968c-11.347656-.03125-22.238282 4.480469-30.242188 12.527344l-80.894531 80.894531c-7.984375 8.035157-12.480469 18.894531-12.511719 30.21875v64.09375c0 4.710938-3.820312 8.53125-8.53125 8.53125-4.714844 0-8.535156-3.820312-8.535156-8.53125v-64.09375c-.0429688-15.871093 6.261719-31.097656 17.515625-42.289062l80.898437-80.898438c11.195313-11.253906 26.425782-17.5624998 42.300782-17.519531h277.417968c14.132813.015625 25.585938 11.46875 25.601563 25.601562v176.835938c0 3.09375-.84375 6.128906-2.433594 8.78125l-23.167969 38.613281v29.40625l23.167969 38.613281c1.589844 2.648438 2.433594 5.683594 2.433594 8.777344v159.769532c-.015625 14.132812-11.46875 25.585937-25.601563 25.601562zm0 0"/><path d="m8.535156 494.933594c-4.714844 0-8.535156-3.820313-8.535156-8.535156v-159.769532c0-3.09375.839844-6.128906 2.433594-8.777344l23.167968-38.617187v-29.40625l-23.167968-38.609375c-1.59375-2.652344-2.433594-5.6875-2.433594-8.78125v-61.722656c0-4.710938 3.820312-8.535156 8.535156-8.535156 4.710938 0 8.53125 3.824218 8.53125 8.535156v61.722656l23.167969 38.613281c1.589844 2.652344 2.433594 5.6875 2.433594 8.777344v29.410156c0 3.09375-.84375 6.128907-2.433594 8.777344l-23.167969 38.617187v159.765626c0 4.714843-3.820312 8.535156-8.53125 8.535156zm0 0"/><path d="m196.265625 128h-42.664063c-9.421874-.007812-17.058593-7.644531-17.066406-17.066406v-59.734375c.007813-9.421875 7.644532-17.054688 17.066406-17.066407h42.664063c4.714844 0 8.535156 3.820313 8.535156 8.535157v76.800781c0 4.710938-3.820312 8.53125-8.535156 8.53125zm-42.664063-76.800781v59.734375h34.132813v-59.734375zm0 0"/><path d="m247.46875 128h-51.203125c-4.710937 0-8.53125-3.820312-8.53125-8.53125v-76.800781c0-4.714844 3.820313-8.535157 8.53125-8.535157h51.203125c4.710938 0 8.53125 3.820313 8.53125 8.535157v76.800781c0 4.710938-3.820312 8.53125-8.53125 8.53125zm-42.667969-17.066406h34.132813v-59.734375h-34.132813zm0 0"/><path d="m298.667969 128h-51.199219c-4.714844 0-8.535156-3.820312-8.535156-8.53125v-76.800781c0-4.714844 3.820312-8.535157 8.535156-8.535157h51.199219c4.710937 0 8.53125 3.820313 8.53125 8.535157v76.800781c0 4.710938-3.820313 8.53125-8.53125 8.53125zm-42.667969-17.066406h34.132812v-59.734375h-34.132812zm0 0"/><path d="m349.867188 128h-51.199219c-4.714844 0-8.535157-3.820312-8.535157-8.53125v-76.800781c0-4.714844 3.820313-8.535157 8.535157-8.535157h51.199219c4.710937 0 8.53125 3.820313 8.53125 8.535157v76.800781c0 4.710938-3.820313 8.53125-8.53125 8.53125zm-42.667969-17.066406h34.132812v-59.734375h-34.132812zm0 0"/><path d="m102.398438 196.265625h-34.132813c-9.421875-.007813-17.054687-7.644531-17.066406-17.066406v-59.730469c.011719-9.421875 7.644531-17.058594 17.066406-17.070312h34.132813c9.421874.011718 17.058593 7.648437 17.070312 17.070312v59.730469c-.011719 9.421875-7.648438 17.058593-17.070312 17.066406zm-34.132813-76.796875v59.730469h34.148437l-.015624-59.730469zm0 0"/><path d="m392.535156 128h-42.667968c-4.714844 0-8.535157-3.820312-8.535157-8.53125v-76.800781c0-4.714844 3.820313-8.535157 8.535157-8.535157h42.667968c9.421875.011719 17.054688 7.644532 17.066406 17.066407v59.734375c-.011718 9.421875-7.644531 17.058594-17.066406 17.066406zm-34.136718-17.066406h34.148437l-.011719-59.734375h-34.136718zm0 0"/><path d="m221.867188 375.46875c-4.714844 0-8.535157-3.824219-8.535157-8.535156v-76.800782c0-4.710937 3.820313-8.53125 8.535157-8.53125 4.710937 0 8.53125 3.820313 8.53125 8.53125v76.800782c0 4.710937-3.820313 8.535156-8.53125 8.535156zm0 0"/><path d="m230.398438 401.066406c0 4.714844-3.820313 8.535156-8.53125 8.535156-4.714844 0-8.535157-3.820312-8.535157-8.535156 0-4.710937 3.820313-8.53125 8.535157-8.53125 4.710937 0 8.53125 3.820313 8.53125 8.53125zm0 0"/><path d="m309.527344 452.265625h-175.320313c-15.148437.132813-29.253906-7.703125-37.152343-20.632813-7.605469-12.34375-8.167969-27.773437-1.480469-40.636718l87.925781-146.34375c7.703125-14.136719 22.554688-22.890625 38.652344-22.789063 16.097656.105469 30.832031 9.046875 38.355468 23.277344l87.382813 145.363281c6.914063 12.953125 6.457031 28.601563-1.210937 41.125-7.894532 12.933594-22.003907 20.769532-37.152344 20.636719zm-87.660156-213.332031c-9.859376-.191406-18.964844 5.25-23.46875 14.019531l-87.925782 146.347656c-3.761718 7.472657-3.324218 16.375 1.148438 23.445313 4.816406 7.832031 13.394531 12.558594 22.585937 12.453125h175.320313c9.191406.105469 17.769531-4.621094 22.585937-12.453125 4.539063-7.253906 4.871094-16.371094.875-23.9375l-87.382812-145.363282c-4.457031-9.003906-13.691407-14.648437-23.738281-14.511718zm0 0"/></svg>